<svg xmlns="http://www.w3.org/2000/svg" width="39.084" height="58.211" viewBox="0 0 39.084 58.211"><defs><style>.a{opacity:0.5;}</style></defs><g class="a" transform="translate(-143.972 -150.741)"><path d="M436.188,248.953v-.779q0-20.846,0-41.692c0-1.5.591-2.1,2.1-2.124.784-.014,1.568,0,2.416,0,.013.258.032.465.032.672q0,20.994,0,41.987a1.687,1.687,0,0,1-1.809,1.93C438.05,248.985,437.166,248.953,436.188,248.953Z" transform="translate(-257.683 -47.274)"/><path d="M382.317,259.937q0,9.33,0,18.66c0,1.449-.549,2.016-2.021,2.069-.649.023-1.3-.007-1.948.022-.424.019-.569-.16-.532-.556.013-.136,0-.275,0-.413q0-18.572-.014-37.143c0-1.459.28-2.113,2.229-2.256.587-.043,1.181.01,1.771-.015.378-.016.537.107.519.5-.024.53-.005,1.063-.005,1.594Z" transform="translate(-206.198 -78.977)"/><path d="M143.987,322.836q0-9.273,0-18.547c0-1.461.526-2.023,2-2.1.688-.034,1.378,0,2.067-.016.347-.01.455.151.443.461-.006.157,0,.315,0,.472q0,18.576,0,37.152c0,.216,0,.433-.007.649a1.392,1.392,0,0,1-1.259,1.47,25.8,25.8,0,0,1-2.885.11c-.118,0-.287-.2-.344-.348a1.516,1.516,0,0,1-.017-.526Q143.987,332.227,143.987,322.836Z" transform="translate(0 -133.54)"/><path d="M323.81,302.2v.718q0,15.149,0,30.3c0,1.378-.565,1.974-1.947,2.024-.708.025-1.418,0-2.126.018-.368.011-.5-.141-.466-.489a2.939,2.939,0,0,0,0-.3q0-15.031,0-30.062c0-1.623.554-2.184,2.2-2.211C322.215,302.19,322.962,302.2,323.81,302.2Z" transform="translate(-154.578 -133.557)"/><path d="M206.857,302.151v.772q0,15.116,0,30.231c0,1.426-.543,1.991-1.983,2.037-.688.022-1.378,0-2.066.016-.357.011-.513-.121-.481-.478.011-.117,0-.236,0-.354,0-10.018.014-20.036-.015-30.054,0-1.512.57-2.087,2.136-2.164C205.213,302.12,205.981,302.151,206.857,302.151Z" transform="translate(-51.446 -133.506)"/><path d="M260.849,319.074c0-4.962.025-9.925-.015-14.887-.013-1.574.67-1.961,1.9-2.079a16.035,16.035,0,0,1,2.243-.005c.136.006.3.218.38.372a1.129,1.129,0,0,1,.018.466c0,10-.015,20.007.016,30.011,0,1.481-.54,2.124-2.112,2.18-.669.024-1.34.034-2.007-.007-.148-.009-.328-.235-.407-.4a1.328,1.328,0,0,1-.017-.525Q260.849,326.635,260.849,319.074Z" transform="translate(-103.049 -133.441)"/><path d="M376.186,600.643a2.292,2.292,0,0,1,2.295-2.335,2.329,2.329,0,1,1,.012,4.658A2.292,2.292,0,0,1,376.186,600.643Z" transform="translate(-204.772 -394.676)"/><path d="M264.992,242.791a2.332,2.332,0,0,1-4.664-.019,2.332,2.332,0,1,1,4.664.019Z" transform="translate(-102.605 -79.08)"/><path d="M204.34,245.093A2.236,2.236,0,0,1,202,242.814a2.321,2.321,0,1,1,4.641-.044A2.234,2.234,0,0,1,204.34,245.093Z" transform="translate(-51.167 -79.076)"/><path d="M321.247,245.093a2.225,2.225,0,0,1-2.334-2.284,2.351,2.351,0,0,1,2.328-2.4,2.385,2.385,0,0,1,2.319,2.36A2.259,2.259,0,0,1,321.247,245.093Z" transform="translate(-154.267 -79.076)"/><path d="M441.085,150.758v4.423h-4.457C436.351,152.977,438.809,150.516,441.085,150.758Z" transform="translate(-258.052)"/></g></svg>