<svg xmlns="http://www.w3.org/2000/svg" width="13.835" height="13.835" viewBox="0 0 13.835 13.835"><defs><style>.a{fill:#8a8a8f;}</style></defs><path class="a" d="M10.918,4A3.459,3.459,0,1,1,7.459,7.459,3.459,3.459,0,0,1,10.918,4m0,1.729a1.729,1.729,0,1,0,1.729,1.729,1.729,1.729,0,0,0-1.729-1.729m0,6.053c2.309,0,6.918,1.15,6.918,3.459v2.594H4V15.241c0-2.309,4.609-3.459,6.918-3.459m0,1.643c-2.568,0-5.275,1.262-5.275,1.816v.951H16.192v-.951C16.192,14.688,13.486,13.425,10.918,13.425Z" transform="translate(-4 -4)"/></svg>