<svg xmlns="http://www.w3.org/2000/svg" width="52" height="52" viewBox="0 0 52 52"><defs><style>.a{fill:#3d4147;}.b{fill:none;}.c{fill:#fff;}</style></defs><g transform="translate(-317.197 -43)"><path class="a" d="M25.5,0A25.5,25.5,0,1,1,0,25.5,25.5,25.5,0,0,1,25.5,0Z" transform="translate(318.197 43)"/><g transform="translate(317.197 43)"><path class="b" d="M0,0H52V52H0Z"/><path class="c" d="M18.51,30.4A11.939,11.939,0,0,1,8.6,25.113c.05-3.3,6.6-5.118,9.906-5.118s9.856,1.816,9.906,5.118A11.939,11.939,0,0,1,18.51,30.4m0-23.444a4.953,4.953,0,1,1-4.953,4.953A4.953,4.953,0,0,1,18.51,6.953M18.51,2a16.51,16.51,0,1,0,16.51,16.51A16.51,16.51,0,0,0,18.51,2Z" transform="translate(8 7)"/></g></g></svg>