<svg xmlns="http://www.w3.org/2000/svg" width="407.56" height="407.562" viewBox="0 0 407.56 407.562"><defs><style>.a{opacity:0.1;}.b{fill:none;stroke:#707070;}</style></defs><g class="a" transform="translate(-13.137 -12.727)"><g transform="translate(13.637 13.227)"><path class="b" d="M379.842,212.13c-.727.55-6.044,4.218-11.744,8.143q.672-4.445,1.1-8.971c5.773-6.176,13.322-14.243,14.157-15.071,2.271-3.085-1.613-5.806-4.535-2.79-1.177,1.216-4.948,5.193-9.03,9.5.114-2.517.182-5.049.182-7.592,0-1.294-.05-2.576-.078-3.862,4.687-5.122,9.762-10.668,11.093-12.139,2.616-2.9-.149-6.343-2.879-4.039-.524.608-4.391,4.867-8.508,9.39-.212-3.3-.492-6.571-.9-9.812,4.429-4.661,9.217-9.7,10.475-11.04,2.5-2.638,0-5.892-2.578-3.809-.535.583-4.576,4.96-8.68,9.4-.527-3.312-1.167-6.583-1.884-9.822,4.308-4.9,9.452-10.769,10.027-11.441,1.626-2.6-1.644-4.532-3.791-1.945-.927,1.119-4.052,4.865-7.311,8.774-.742-2.937-1.583-5.832-2.482-8.7,3.117-4.89,6.773-10.627,7.7-12.053,1.694-2.6-.911-4.96-2.758-2.813-.4.633-3.452,5.864-6.292,10.713-.81-2.373-1.687-4.717-2.606-7.04,2.833-5.277,6.378-11.879,7.239-13.456,1.492-2.724-1.274-4.88-2.958-2.6-.374.7-3.335,6.763-5.9,12.045-1.393-3.269-2.909-6.473-4.508-9.63,2.552-4.386,5.348-9.2,6.111-10.458,1.484-2.457-1-4.548-2.633-2.509-.339.585-2.781,5.35-5.075,9.856-1.3-2.438-2.667-4.831-4.084-7.2,2.043-4.247,4.323-8.979,4.946-10.212,1.206-2.368-1.215-4.137-2.591-2.139-.284.575-2.183,5.376-3.912,9.775q-1.991-3.193-4.117-6.275c1.585-4.323,3.542-9.638,4.067-10.946.912-2.289-1.476-3.72-2.583-1.762-.241.63-1.732,6.232-2.905,10.711-1.739-2.438-3.523-4.834-5.384-7.166,1.14-4.118,2.555-9.209,2.945-10.478.694-2.21-1.648-3.375-2.543-1.458-.178.62-1.054,6.115-1.715,10.321q-3.017-3.7-6.259-7.206c.747-4.105,1.648-8.959,1.919-10.207.486-2.263-1.948-3.214-2.667-1.226-.117.6-.474,5.65-.747,9.8-2.266-2.395-4.616-4.707-7.025-6.961.172-3.662.362-7.625.446-8.734.17-2.2-2.251-2.786-2.676-.816-.031.537.293,4.449.6,8.007-2.674-2.444-5.445-4.781-8.283-7.047.025-3.938.058-9.293.1-10.607.068-2.145-2.31-2.606-2.636-.673-.01.692.825,6.743,1.32,10.3q-4.785-3.751-9.855-7.143c-.01-3.4-.04-8.924-.141-9.592-.565-1.869-2.857-1.109-2.514,1,.16,1,.659,4.34,1.135,7.574-2.828-1.856-5.725-3.6-8.67-5.282-.327-3.923-.828-9.932-.95-11.369-.187-2.175-2.641-2.36-2.745-.372.086.835,1.7,8.435,2.228,10.889-2.5-1.39-5.051-2.7-7.629-3.961-.529-4.031-1.266-9.572-1.473-10.965-.336-2.256-2.912-2.286-2.884-.207.132.793,1.6,7.2,2.287,10.184a162.392,162.392,0,0,0-20.338-8l-3.021.344,3.041,1.8a156.29,156.29,0,0,1,20.361,9.308l-.122,0s-10.62,2.7-11.617,3.023c-1.859.927-.651,3.2,1.5,2.467,1.562-.531,8.526-3.034,12.241-4.371.056.03.1.061.162.091l.435.729s-.026-.19-.066-.516c2.917,1.664,5.793,3.4,8.589,5.247l-.835,0s-10.661,2.314-11.612,2.629c-1.773.916-.59,3.079,1.466,2.347,1.529-.54,8.511-3.019,12.023-4.267,2.9,1.94,5.733,3.96,8.486,6.088.1.729.172,1.17.172,1.17l.139-.927c.532.415,1.053.851,1.585,1.273-2.846-.337-12.007-1.413-13.793-1.654-2.117-.288-2.816,2.029-.932,2.543.977.111,12.248-.2,12.248-.2l2.732-.484q4.08,3.265,7.938,6.784l-.3-.064s-11.985-.752-12.965-.658c-1.9.478-1.254,2.811.878,2.573,1.631-.182,9.521-.856,13.122-1.158C311.1,76.513,314.7,80.163,318.108,84c-1.615-.124-12.887-1-13.826-.929-1.967.45-1.349,2.864.846,2.662,1.686-.152,9.952-.635,13.737-.849q3.228,3.691,6.232,7.576c-4.252-.573-11.355-1.512-12.1-1.512-2.091.314-1.636,2.886.678,2.856,1.509-.023,8.123.089,12.557.17q2.675,3.565,5.148,7.278c-4.7.073-10.914.18-11.6.268-2.17.6-1.35,3.269,1.091,2.929,1.4-.2,7.136-.835,11.736-1.342q3.034,4.7,5.743,9.613c-5.242-.294-12.967-.719-13.763-.7-2.386.421-1.792,3.361.861,3.251,1.658-.066,8.9-.2,14.092-.293q2.764,5.255,5.145,10.742c-5.627-1.026-13.337-2.424-14.158-2.529-2.611.068-2.449,3.3.4,3.618,1.765.188,9.43,1.144,15.024,1.854q2.169,5.288,3.952,10.772c-5.776-1.815-12.811-4.018-13.6-4.236-2.818-.342-3.156,3.147-.149,3.935,1.753.456,9.086,2.448,14.886,4.019q1.467,4.918,2.613,9.962c-5.652-2.135-11.643-4.4-12.39-4.669-3.008-.6-3.666,3.133-.489,4.232,1.661.573,8.08,2.816,13.829,4.822q1.165,5.93,1.879,12.016c-6.04-2.945-12.681-6.191-13.474-6.584-3.157-1-4.305,2.93-1.03,4.49,1.78.845,8.868,4.188,15,7.08.374,4.419.58,8.886.58,13.4,0,.449-.017.9-.017,1.352-5.776-4.452-12.169-9.385-12.922-9.99-3.082-1.8-5.208,2.074-2.12,4.477,1.737,1.352,8.939,6.87,14.884,11.426q-.285,6.3-1.058,12.466c-5.127-5.819-10.721-12.2-11.369-12.985-2.852-2.562-5.935,1.036-3.216,4.239,1.565,1.844,8.2,9.481,13.552,15.631q-.788,4.641-1.849,9.179c-5.2-5.659-10.432-11.375-11.079-12.147-3.077-2.71-6.336,1.178-3.4,4.578,1.506,1.737,7.369,8.3,12.744,14.3-1.1,3.928-2.365,7.8-3.755,11.588-4.889-7.126-10.569-15.439-11.175-16.429-2.662-3.119-6.447.271-4.014,4.051,1.428,2.231,7.683,11.635,12.58,18.981q-2.42,5.751-5.274,11.25c-3.619-7.754-7.758-16.644-8.2-17.7-2.117-3.515-6.4-.788-4.618,3.34,1.053,2.429,5.682,12.706,9.311,20.751q-3.461,5.982-7.43,11.61c-2.373-8.567-5.3-19.206-5.571-20.389-1.5-3.819-6.179-1.844-5.11,2.522.679,2.763,3.932,15.17,6.221,23.9q-3.865,4.99-8.121,9.642c-1.1-9.481-2.469-21.466-2.547-22.774-.914-4.285-6.181-3.024-5.814,1.758.231,3.114,1.6,17.442,2.524,27.056q-4.125,4.053-8.552,7.81c-.261-10.161-.577-23.142-.522-24.55-.516-4.627-6.227-3.837-6.348,1.259-.071,3.315-.068,18.573-.058,28.842q-5.54,4.19-11.456,7.878c.42-10.681.972-24.036,1.13-25.5-.188-4.94-6.3-4.543-6.809.848-.319,3.365-1.378,18.4-2.122,29.226q-6.671,3.652-13.722,6.652c2.745-11.157,6.442-26.064,6.961-27.609.879-5.155-5.521-6.092-7.235-.626-1.144,3.634-6.011,20.794-9.144,31.885a156.159,156.159,0,0,1-46.9,8.728,156.171,156.171,0,0,1-46.9-8.728c-3.132-11.091-8-28.25-9.146-31.885-1.717-5.465-8.118-4.528-7.23.626.512,1.545,4.209,16.452,6.958,27.609q-7.043-2.992-13.72-6.652c-.747-10.823-1.8-25.859-2.124-29.226-.516-5.391-6.616-5.788-6.811-.848.165,1.463.711,14.818,1.129,25.5q-5.9-3.689-11.451-7.878c.008-10.27.012-25.527-.063-28.842-.116-5.1-5.826-5.887-6.346-1.259.058,1.41-.261,14.39-.522,24.55q-4.42-3.748-8.553-7.81c.927-9.613,2.294-23.942,2.529-27.056.364-4.784-4.908-6.044-5.819-1.758-.076,1.307-1.448,13.292-2.548,22.774q-4.249-4.658-8.123-9.642c2.294-8.726,5.545-21.133,6.222-23.9,1.071-4.368-3.606-6.341-5.108-2.522-.269,1.183-3.2,11.821-5.574,20.389q-3.956-5.62-7.429-11.61c3.631-8.045,8.262-18.321,9.311-20.751,1.78-4.128-2.5-6.855-4.618-3.34-.435,1.056-4.575,9.946-8.194,17.7q-2.851-5.508-5.277-11.25c4.9-7.346,11.152-16.751,12.582-18.981,2.433-3.78-1.349-7.169-4.011-4.051-.61.992-6.29,9.3-11.175,16.429q-2.1-5.687-3.758-11.588c5.373-6,11.236-12.565,12.742-14.3,2.943-3.4-.317-7.287-3.4-4.578-.645.772-5.878,6.488-11.078,12.147q-1.066-4.541-1.853-9.179c5.351-6.15,11.99-13.786,13.555-15.631,2.719-3.2-.365-6.8-3.216-4.239-.648.788-6.245,7.166-11.365,12.985q-.778-6.163-1.064-12.466c5.951-4.556,13.149-10.075,14.89-11.426,3.085-2.4.962-6.273-2.127-4.477-.749.6-7.146,5.538-12.919,9.99,0-.451-.018-.9-.018-1.352,0-4.518.2-8.987.582-13.4,6.126-2.892,13.22-6.235,15-7.08,3.279-1.558,2.129-5.5-1.026-4.49-.795.393-7.437,3.639-13.481,6.584q.716-6.083,1.886-12.016c5.748-2.006,12.165-4.249,13.824-4.822,3.176-1.1,2.519-4.836-.484-4.232-.749.273-6.746,2.534-12.392,4.669q1.143-5.047,2.611-9.962c5.8-1.57,13.134-3.561,14.889-4.019,3-.788,2.667-4.277-.149-3.935-.795.22-7.834,2.423-13.606,4.236q1.78-5.478,3.947-10.772c5.594-.711,13.259-1.666,15.021-1.854,2.856-.314,3.018-3.55.4-3.618-.823.1-8.529,1.5-14.157,2.529q2.375-5.481,5.148-10.742c5.186.094,12.43.226,14.089.293,2.654.111,3.247-2.829.863-3.251-.8-.02-8.524.4-13.763.7q2.7-4.918,5.74-9.613c4.6.507,10.327,1.144,11.739,1.342,2.444.339,3.259-2.324,1.094-2.929-.692-.088-6.9-.195-11.6-.268q2.469-3.716,5.148-7.278c4.431-.081,11.048-.192,12.555-.17,2.315.031,2.765-2.54.678-2.856-.739,0-7.847.939-12.1,1.512Q89.757,88.568,93,84.887c3.783.215,12.051.7,13.734.849,2.2.2,2.816-2.213.851-2.662-.94-.066-12.215.8-13.824.929,3.4-3.837,7.009-7.488,10.767-10.972,3.611.3,11.494.977,13.127,1.158,2.134.24,2.78-2.1.883-2.573-.982-.094-12.968.658-12.968.658l-.3.064q3.85-3.53,7.939-6.784l2.729.484s11.269.311,12.246.2c1.884-.516,1.187-2.831-.93-2.543-1.787.241-10.949,1.317-13.793,1.654.532-.421,1.051-.858,1.587-1.273l.139.927s.064-.441.172-1.17c2.753-2.127,5.591-4.148,8.486-6.088,3.51,1.248,10.493,3.727,12.018,4.267,2.058.732,3.241-1.431,1.468-2.347-.95-.316-11.613-2.629-11.613-2.629l-.833,0c2.8-1.844,5.672-3.581,8.59-5.247-.041.324-.066.516-.066.516l.433-.729c.056-.031.107-.063.162-.091,3.712,1.337,10.678,3.841,12.241,4.371,2.158.734,3.362-1.54,1.5-2.467-1-.319-11.62-3.023-11.62-3.023l-.119,0a156.047,156.047,0,0,1,20.359-9.308l3.044-1.8-3.026-.344a162.774,162.774,0,0,0-20.333,8c.684-2.986,2.15-9.389,2.281-10.184.028-2.077-2.545-2.048-2.882.207-.207,1.392-.939,6.935-1.469,10.965-2.58,1.261-5.13,2.572-7.63,3.961.524-2.454,2.139-10.055,2.226-10.889-.1-1.988-2.562-1.8-2.743.372-.124,1.436-.626,7.445-.954,11.369-2.947,1.679-5.844,3.426-8.668,5.282.474-3.234.972-6.573,1.134-7.574.342-2.112-1.948-2.872-2.517-1-.1.668-.127,6.2-.137,9.592q-5.062,3.4-9.856,7.143c.5-3.553,1.332-9.605,1.322-10.3-.324-1.932-2.705-1.473-2.634.673.043,1.314.079,6.668.1,10.607-2.833,2.266-5.6,4.6-8.278,7.047.309-3.557.63-7.47.6-8.007-.423-1.968-2.848-1.383-2.676.816.086,1.109.273,5.072.445,8.734C91.3,77.984,88.953,80.3,86.688,82.69c-.276-4.148-.63-9.192-.75-9.8-.719-1.988-3.155-1.036-2.666,1.226.269,1.248,1.167,6.1,1.919,10.207q-3.23,3.513-6.264,7.206c-.656-4.206-1.53-9.7-1.712-10.321-.894-1.917-3.236-.752-2.547,1.458.393,1.269,1.811,6.359,2.95,10.478-1.861,2.332-3.647,4.728-5.383,7.166-1.178-4.48-2.667-10.083-2.905-10.711-1.109-1.958-3.5-.526-2.583,1.762.521,1.307,2.477,6.622,4.062,10.946q-2.129,3.086-4.117,6.275c-1.729-4.4-3.624-9.2-3.909-9.775-1.377-2-3.8-.23-2.6,2.139.626,1.233,2.912,5.963,4.951,10.212-1.415,2.367-2.786,4.76-4.085,7.2-2.3-4.507-4.733-9.27-5.074-9.856-1.638-2.039-4.115.05-2.633,2.509.759,1.261,3.561,6.072,6.11,10.458-1.595,3.157-3.11,6.363-4.508,9.63-2.573-5.282-5.533-11.347-5.9-12.045-1.686-2.284-4.454-.127-2.96,2.6.864,1.577,4.408,8.177,7.239,13.456-.919,2.322-1.795,4.667-2.606,7.04-2.836-4.851-5.893-10.081-6.292-10.713-1.851-2.147-4.451.21-2.757,2.813.929,1.426,4.589,7.163,7.7,12.053-.9,2.871-1.74,5.766-2.482,8.7-3.257-3.907-6.388-7.655-7.311-8.774-2.145-2.586-5.416-.658-3.791,1.945.575.673,5.721,6.538,10.028,11.441-.719,3.239-1.358,6.51-1.882,9.822-4.1-4.437-8.148-8.814-8.681-9.4-2.576-2.084-5.072,1.172-2.58,3.809,1.261,1.335,6.05,6.378,10.475,11.04-.4,3.241-.683,6.515-.892,9.812-4.117-4.522-7.986-8.781-8.514-9.39-2.724-2.3-5.492,1.137-2.872,4.039,1.327,1.471,6.4,7.017,11.091,12.139-.03,1.286-.078,2.568-.078,3.862,0,2.543.064,5.074.18,7.592-4.079-4.305-7.848-8.281-9.028-9.5-2.922-3.014-6.807-.3-4.537,2.79.836.828,8.387,8.895,14.157,15.071.291,3.011.656,6.007,1.107,8.971-5.7-3.925-11.02-7.592-11.745-8.143-3.608-1.953-5.915,2.565-2.286,5.217,1.843,1.345,8.929,6.361,15.467,10.982q1.133,5.526,2.634,10.916c-6.386-3.9-12.671-7.744-13.481-8.291-3.707-1.758-5.768,2.886-2,5.336,2.1,1.365,10.789,6.829,18.055,11.387,1.111,3.3,2.332,6.546,3.641,9.747-7.144-2.512-14.253-5.016-15.171-5.389-3.993-.942-5.039,4.026-.845,5.636,2.266.871,11.342,4.2,19.222,7.08q1.693,3.609,3.548,7.126c-8.136-.388-16.836-.825-17.9-.922-4.1.231-3.682,5.288.8,5.636,2.416.19,12.064.788,20.438,1.3q2.36,4.041,4.935,7.924c-8.493.235-18.115.486-19.244.459-4.066.542-3.272,5.555,1.221,5.566,2.575,0,13.311-.141,22.018-.261q3.111,4.289,6.48,8.362c-9.124.45-19.625.952-20.847.937-4.333.631-3.421,5.971,1.375,5.928,2.886-.028,15.373-.388,24.872-.673q3.669,4,7.587,7.753c-9.628.99-20.653,2.1-21.947,2.144-4.575.869-3.357,6.506,1.739,6.227,3.152-.165,17.077-1.226,27.249-2.021q3.649,3.116,7.477,6.017c-10.527,1.13-23.392,2.486-24.834,2.533-4.857.909-3.581,6.89,1.826,6.614,3.747-.19,21.842-1.58,32.605-2.418q3.086,2,6.267,3.874c-10.592,2.063-24.258,4.7-25.75,4.874-4.761,1.321-2.981,7.169,2.381,6.439,3.948-.539,23.906-3.8,34.177-5.492q3.247,1.594,6.574,3.047c-10.594,3.98-23.97,8.977-25.474,9.405-4.75,2.187-1.9,7.991,3.575,6.32,3.879-1.188,22.793-7.551,33.508-11.174,1.735.6,3.477,1.192,5.236,1.739-9.889,5.535-22.433,12.521-23.861,13.173-4.368,2.867-.683,8.186,4.484,5.71,3.585-1.72,20.719-10.534,30.862-15.77a165.331,165.331,0,0,0,74.6,0c10.144,5.236,27.274,14.049,30.867,15.77,5.16,2.476,8.845-2.843,4.477-5.71-1.428-.653-13.973-7.639-23.859-13.173,1.762-.547,3.5-1.134,5.229-1.739,10.719,3.621,29.632,9.985,33.514,11.174,5.47,1.671,8.318-4.133,3.571-6.32-1.5-.43-14.881-5.426-25.476-9.405q3.334-1.453,6.576-3.047c10.27,1.691,30.23,4.953,34.18,5.492,5.359.731,7.143-5.118,2.378-6.439-1.492-.178-15.156-2.811-25.755-4.874q3.183-1.874,6.272-3.874c10.765.838,28.86,2.228,32.605,2.418,5.406.276,6.682-5.7,1.824-6.614-1.448-.048-14.305-1.4-24.836-2.533q3.825-2.9,7.475-6.017c10.174.793,24.1,1.856,27.249,2.021,5.1.279,6.312-5.356,1.739-6.227-1.294-.048-12.319-1.154-21.946-2.144q3.919-3.748,7.587-7.753c9.5.284,21.989.646,24.876.673,4.793.043,5.707-5.3,1.372-5.928-1.221.015-11.724-.488-20.848-.937q3.374-4.075,6.482-8.362c8.711.121,19.444.264,22.02.261,4.492-.012,5.285-5.024,1.218-5.566-1.13.027-10.749-.226-19.244-.459q2.576-3.882,4.936-7.924c8.376-.514,18.024-1.111,20.435-1.3,4.484-.347,4.9-5.406.8-5.636-1.068.1-9.764.532-17.9.922q1.859-3.518,3.548-7.126c7.885-2.884,16.961-6.209,19.225-7.08,4.193-1.611,3.142-6.578-.851-5.636-.914.374-8.02,2.877-15.163,5.389,1.3-3.2,2.524-6.444,3.636-9.747,7.268-4.558,15.955-10.02,18.057-11.387,3.768-2.451,1.705-7.1-1.993-5.336-.818.547-7.1,4.391-13.489,8.291,1-3.593,1.887-7.232,2.641-10.916,6.536-4.621,13.621-9.635,15.462-10.982C385.753,214.693,383.448,210.176,379.842,212.13Z" transform="translate(-4.383 1.119)"/><path class="b" d="M216.917,419.789A203.284,203.284,0,0,0,360.66,72.766,201.943,201.943,0,0,0,216.917,13.227c-112.09,0-203.28,91.2-203.28,203.28a203.28,203.28,0,0,0,203.28,203.282ZM23.627,216.507A193.29,193.29,0,0,1,353.592,79.831a192.039,192.039,0,0,1,56.617,136.676c0,106.582-86.713,193.293-193.293,193.293A193.3,193.3,0,0,1,23.627,216.507Z" transform="translate(-13.637 -13.227)"/><path class="b" d="M210.783,133.953c-1.249-2.5-6.872-4.373-9.366.626s1.246,4.993-4.373.623q-4.192-4-8.225-7.584a4.632,4.632,0,1,0-6.25-5.406C136.752,83.764,108.01,85.935,92.135,92.739c37.312-1.261,67.166,19.716,84.644,34.775a4.631,4.631,0,1,0,6.262,5.583c5.055,4.654,8.447,8.073,9.946,8.976,4.181,2.505,5.933,6.24,12.178,3.743C209.941,143.906,212.03,136.452,210.783,133.953Z" transform="translate(37.595 36.102)"/><path class="b" d="M108.05,133.953a5.321,5.321,0,0,1,9.367.626c2.5,4.993-1.249,4.993,4.37.623q4.2-4,8.225-7.584a4.632,4.632,0,1,1,6.252-5.406c45.815-38.449,74.56-36.277,90.435-29.473-37.31-1.261-67.166,19.716-84.647,34.775a4.631,4.631,0,1,1-6.26,5.583c-5.054,4.654-8.447,8.073-9.946,8.976-4.181,2.505-5.931,6.24-12.177,3.743C108.89,143.906,106.8,136.452,108.05,133.953Z" transform="translate(47.751 36.102)"/><path class="b" d="M149.509,139.835h-9.992c0-4.059-1.249-8.119-.625-12.182.625-2.183,2.5-2.183,4.371-1.872,0-2.81-.623-5.933.312-8.743,0-.311-.626-2.808,0-3.436,1.16-1.158-.018-4.143-.626-4.994.626.94-.311-2.81,1.251-2.5-.311-5.307.311-5.307.311-10.615,1.563,0,0-1.876-.311-3.124-1.251-3.748,1.872-7.493-2.5-9.992-2.81-1.249-4.057,2.5-5.617,4.057-.626,1.249-.312,2.811-.312,4.062-2.5-.937-2.5-3.748-3.747-5.621s-.312-4.059-.625-6.242h-1.246c-.312.932-.939,1.56-1.253,2.5-.623,1.872,0,3.748-.311,5.621-.623-.937-1.872-1.249-2.5-1.874-2.811-5-3.122-10.3-2.811-15.923-2.81-.314-3.434,4.059-4.993,5.619-.625.623-1.249-1.253-1.249-2.185a14,14,0,0,1,2.5-11.55c.311-.626,3.745-3.124,3.745-3.75-1.558,0-5.93-.312-8.118,1.871-1.681,1.682-.935-6.242,1.562-8.429a28.412,28.412,0,0,1,9.68-3.75c0-.621-.623-.934-.312-1.557-3.747-.937-7.493.312-11.24.623.623-3.125,4.371-4.371,7.181-4.682,3.75-.623,7.809-.311,11.554-.311,0-1.876-1.248-3.436-2.5-4.684-.934-1.249-3.122-.314-4.682-.63,3.12-.935,5.931-.309,9.055-.309,1.871.309,3.122,2.186,4.994,2.81,0-2.81.626-7.495-3.124-8.429,3.75-.314,6.872,2.808,8.746,5.928h.937c.311-.309-.314-1.244,0-1.557.623-.314.623-1.246.937-1.872,1.248-.94.311-7.186,2.183-7.809,1.874.621.937,6.867,2.185,7.809.314.625.314,1.557.939,1.872.311.312-.311,1.248,0,1.557h.934c1.877-3.12,5-6.242,8.744-5.928-3.743.934-3.12,5.619-3.12,8.429,1.876-.623,3.12-2.5,4.994-2.81,3.124,0,5.933-.626,9.055.309-1.562.314-3.747-.62-4.682.63-1.249,1.248-2.5,2.808-2.5,4.684,3.743,0,7.805-.312,11.549.311,2.813.311,6.559,1.557,7.184,4.682-3.75-.311-7.495-1.562-11.24-.623.311.623-.312.935-.312,1.557a28.4,28.4,0,0,1,9.678,3.75c2.5,2.186,3.021,10.306,1.563,8.429-2.185-2.806-5.624-2.806-7.186-2.806,0,.623,2.5,4.059,2.811,4.685a13.989,13.989,0,0,1,2.5,11.55c0,.932-.626,2.808-1.249,2.185-1.562-1.56-2.186-5.935-5-5.619.314,5.619,0,10.926-2.806,15.923-.623.625-1.876.935-2.5,1.874-.311-1.874.311-3.75-.311-5.621-.312-.934-.939-1.562-1.248-2.5h-1.248c-.314,2.183.623,4.368-.626,6.242S167,89.564,164.5,90.5c0-1.251.309-2.813-.314-4.062-1.563-1.558-2.811-5.307-5.622-4.057-3.12,1.872-.716,4.026-2.808,10.306-.311,1.244-1.565,2.808,0,2.808,0,5.308.937,4.993.625,10.3,1.56-.311.312,3.752.939,2.809-1.563,2.186-2.813,3.752-.314,6.245.626.625-.311,1.874-.311,2.185.937,2.81.311,5.933.311,8.743,1.874-.311,3.747-.311,4.371,1.872.625,4.062-.623,8.123-.623,12.182H149.509Z" transform="translate(52.036 -5.996)"/><g transform="translate(122.125 193.364)"><path class="b" d="M168.477,138.188a1.8,1.8,0,0,0-.912.562.9.9,0,0,0-.106.8,1.138,1.138,0,0,0,.5.7,5.04,5.04,0,0,0,.861-.378,2.726,2.726,0,0,0,.826-.773,1.709,1.709,0,0,0,.145-.517,2.551,2.551,0,0,0,.043-.494A2.391,2.391,0,0,0,168.477,138.188Z" transform="translate(-35.399 -125.136)"/><path class="b" d="M151.479,151.233c-.008.109-.035.519-.078,1.246a5.661,5.661,0,0,0-.063,1.144,1.43,1.43,0,0,0,.861.686,2.606,2.606,0,0,0,1.517-.331,13.714,13.714,0,0,0,1.287-.709,9.092,9.092,0,0,0,.963-.691,4.956,4.956,0,0,0-2.419-.944A6.711,6.711,0,0,0,151.479,151.233Z" transform="translate(-45.899 -116.532)"/><path class="b" d="M108.726,140.594a5.909,5.909,0,0,0-.853-.172,7.1,7.1,0,0,1-1.248-.331,7.413,7.413,0,0,1-1.155-.607,2,2,0,0,0-.947-.4,6.39,6.39,0,0,0,.709,1.553,15.7,15.7,0,0,0,.914,1.443,10.537,10.537,0,0,0,1.378-.785C107.8,141.136,108.2,140.9,108.726,140.594Z" transform="translate(-76.444 -124.448)"/><path class="b" d="M211.735,130.229a50.885,50.885,0,0,1-88.318,0H87.533a83.614,83.614,0,0,0,80.043,58.314c37.208,0,68.757-24.78,79.747-58.314Zm-6.654,16.89a13.624,13.624,0,0,1,1.618-.251,10.338,10.338,0,0,1,1.664-.213c.149.063.264.408.355,1.059.069.656.048,1.036-.055,1.13a5.317,5.317,0,0,1-1.5.36,5.9,5.9,0,0,1-1.5.132c-.109-.059-.238-.431-.41-1.112S205.007,147.189,205.082,147.119Zm-60.089,11.3a5.5,5.5,0,0,1,1.534-.438,5.491,5.491,0,0,1,.378,1.238,4.865,4.865,0,0,1,.3,1.3,3.781,3.781,0,0,1-1.446.582,4.316,4.316,0,0,1-1.563.248,3.205,3.205,0,0,1-.516-1.132c-.212-.727-.283-1.119-.216-1.2A6.084,6.084,0,0,1,144.993,158.418Zm-23.316-18.546a3.047,3.047,0,0,1,.248-.894c1.033.309,1.745.531,2.165.669.517.164.845.241.942.261a2.646,2.646,0,0,0-.324.977,1.6,1.6,0,0,0,.031.889,3.773,3.773,0,0,0,1.094.36c.663.164,1.046.269,1.162.311l-.076,2.129c-.679-.071-1.373-.172-2.059-.309a3.625,3.625,0,0,1-1.109-.3,4.315,4.315,0,0,1-.035-1.122c.021-.681.055-1.031.063-1.048q-.526-.174-1.03-.354a9.086,9.086,0,0,0-1.038-.3A3.127,3.127,0,0,1,121.677,139.872Zm-3.507,23.692a4.6,4.6,0,0,1-1.34-.175,11.413,11.413,0,0,1-.562-1.547c-.2-.8-.332-1.3-.385-1.511-.582-.086-1.087-.195-1.565-.3a3.17,3.17,0,0,0-.836-.131,6.1,6.1,0,0,1-.562-1.709,3.618,3.618,0,0,1-.18-1.4c1.516.278,2.51.42,2.909.529a4.147,4.147,0,0,0,.539.089,4.386,4.386,0,0,0,.169,1.459,2.985,2.985,0,0,0,.489,1.274,3.761,3.761,0,0,0,1.236.264,9.066,9.066,0,0,1,1.378.167l.94,2.985A15.181,15.181,0,0,1,118.17,163.565ZM147.8,172.4c-.929-.349-1.839-.7-2.724-1.066s-1.783-.722-2.684-1.086a11.136,11.136,0,0,0-3.542-.372,8.659,8.659,0,0,1-3.48-.535l-4.5-2.55-.035.035-2.962-1.944a.6.6,0,0,1-.269-.42.538.538,0,0,1,.212-.466l1.206-1.2c-.223.078-.757.245-1.568.454s-1.276.312-1.362.335L124,161.972l.013-.013-1.2-.978a1.914,1.914,0,0,1-.783-2,3.1,3.1,0,0,1,.691-1.087l-2.971.269-3.264-3.452-.02.012-.2-.243-.435-.459.035-.017-1.644-1.968a1.42,1.42,0,0,1-.073-2.018c.552-.45,1.149-.9,1.765-1.347a3.827,3.827,0,0,0-1.585-.311c-1.509-.083-2.355-.413-2.558-.96-.312-.749-.651-1.658-1.078-2.682-.562-1.481-.954-2.414-1.165-2.819a16.223,16.223,0,0,1,3.049.205,12.426,12.426,0,0,1,3.37.664,14.315,14.315,0,0,1,2.021,1.087c.962.526,2.071,1.1,3.3,1.712a1.35,1.35,0,0,0,.466-.289,1.408,1.408,0,0,1,.469-.291c.568.069,1.028.117,1.395.129,1.162.078,2.16.112,2.976.124a15.9,15.9,0,0,1-2.238,1.357c-1.354.777-2.7,1.573-4.033,2.391a19.8,19.8,0,0,0-2.02,1.36.891.891,0,0,0-.036.81,5.655,5.655,0,0,0,.792,1.091l.378.415,4.143,4.218a4.607,4.607,0,0,0,1.208-.521c.521-.293,1.021-.585,1.507-.876.088-.018.764-.05,1.978-.084,1.228-.089,1.9-.122,2.049-.111a1.315,1.315,0,0,1-.134.124c-.149.1-.286.2-.418.3-.369.263-.793.544-1.279.841s-1.068.615-1.74.964a.983.983,0,0,0-.623.972,1.5,1.5,0,0,0,.6,1.069l.471.362,2.752,2.033,5.779-6.728c.825-.21,1.454-.388,1.877-.521,1.324-.4,2.177-.673,2.558-.757.129.066-1,1.411-3.348,4.059-2.307,2.687-3.675,4.269-4.128,4.72-.435.428-.459.772-.056,1l.21.132,0,0,5.419,2.976a8.834,8.834,0,0,0,1.653.595,4.856,4.856,0,0,0,1.38.182,13.664,13.664,0,0,0-1.1-1.466,6.705,6.705,0,0,0-1.54-1.61,4.8,4.8,0,0,0-1.459-.549,5.9,5.9,0,0,0-1.477-.089c1.092-.456,1.977-.8,2.664-1.008,1.732-.588,2.958-.722,3.707-.35a5.941,5.941,0,0,1,2.446,2.028c1.464,1.792,2.244,2.71,2.253,2.725a21.2,21.2,0,0,0,2.525,1.965,7.071,7.071,0,0,0,1.9.96Zm9.771-7.637a52.735,52.735,0,0,1-1.149,5.979,9.009,9.009,0,0,1-1.714,3.467,9.585,9.585,0,0,1-1.752,1.477l1.8-10.218a10.687,10.687,0,0,1,1.623-1.912c.823-.921,1.347-1.484,1.592-1.717Q157.744,163.628,157.574,164.766Zm20.151,4.751c.127.421.329,1.041.6,1.849a7.266,7.266,0,0,1,.084,1.515c-.013.737-.06,1.522-.142,2.372,0,.2-.139.37-.425.514a2.109,2.109,0,0,1-.828.187l-3.228.377,0,.016-.345.028-.6.069,0-.026-2.973.221c-.317,0-.56-.195-.727-.592-.324-.808-.511-1.216-.57-1.322-.17.066-.416.408-.754,1.035s-.691.945-1.049.959l-7.528-.369a.88.88,0,0,1-.621-.334.758.758,0,0,1-.134-.623c.174-.579.311-1.028.41-1.362a14.131,14.131,0,0,1,1-2.441,3.924,3.924,0,0,1,.616-1.039,1.375,1.375,0,0,1,.669-.516c-.012.064-.071.337-.183.81s-.183.808-.213.992a1.609,1.609,0,0,0,.041.864.637.637,0,0,0,.633.337l6.634.215a13.338,13.338,0,0,0-.643-3.064c-.423-1.643-.623-2.5-.62-2.53,0-.069.276-.631.8-1.73.5-1.071.788-1.676.878-1.811.236.785.527,1.833.876,3.132.131.468.307,1.125.54,1.963a23.97,23.97,0,0,0,1.116,3.191c.255.479.527.684.823.654l1.111-.1,3.168-.354c.05-.043.06-.175.017-.411a30.114,30.114,0,0,0-1.15-3.643c-.324-.952-.661-1.967-1.011-3.054-.23-.147-.395-.256-.5-.322a2.427,2.427,0,0,1-.542-.428c.273-.83.5-1.555.7-2.134.352-1.132.59-1.74.739-1.757a4.468,4.468,0,0,1,.241.668,1.612,1.612,0,0,0,.547.887c.57.322,1.091.6,1.563.816a6.45,6.45,0,0,0,1.82.636l-1.547,3.358Q177.047,167.395,177.725,169.518Zm7.587,5.05-4.7-9.374a9.6,9.6,0,0,1,.245-2.276c.16-1.092.268-1.787.344-2.079q.888,1.6,1.441,2.634a54.278,54.278,0,0,1,2.672,5.512,7.666,7.666,0,0,1,.623,3.614A6.649,6.649,0,0,1,185.312,174.568Zm4.6-14.267c-.071.243-.152.529-.253.82a6.851,6.851,0,0,1-1.671-.063,4.434,4.434,0,0,1-1.36-.355c.16-.742.283-1.3.387-1.687.066-.269.127-.5.178-.679a6.354,6.354,0,0,0,1.449.327,3.409,3.409,0,0,0,1.244.051c.078-.035.172-.307.264-.825a3.757,3.757,0,0,1,.22-.924l3.043.145a8.437,8.437,0,0,1,0,1.557c-.056.56-.129.878-.212.921a10.668,10.668,0,0,1-1.068.01c-1.182-.056-1.856-.112-2.039-.149A2.95,2.95,0,0,1,189.913,160.3Zm9.547,7.533a5.44,5.44,0,0,1-1.068,1.393,6.474,6.474,0,0,1-1.524,1.2,10.3,10.3,0,0,1-2.35.83c-1.046.145-1.734-.076-2.081-.7a4.865,4.865,0,0,1-.459-2.467c.01-.413.079-1.387.182-2.884a13.948,13.948,0,0,1,.144-1.554c.04-.3.157-.954.329-1.975.582.1,1.02.155,1.342.213,1.053.154,1.869.283,2.446.411a4.232,4.232,0,0,1,1.444.542,4.509,4.509,0,0,1,1.015.888c.119.147.217.274.294.388s.139.22.2.322a21.915,21.915,0,0,1,.33,2.269A3.766,3.766,0,0,1,199.461,167.833Zm9.248,1.578A16.023,16.023,0,0,1,204,170.937c-2.266.375-3.492.39-3.684.126-.091-.126-.064-.221.084-.3.656-.178,1.319-.362,1.967-.585a10.538,10.538,0,0,0,1.869-.806A5.784,5.784,0,0,0,205.521,168a9.9,9.9,0,0,0,1.306-2.461c.129-.34.321-.873.562-1.608.278-1.044.215-1.725-.182-2.072a6.5,6.5,0,0,0-2.811-.58c-.506-.061-1.23-.1-2.2-.175-.291-.6-.514-1.035-.661-1.319a6.639,6.639,0,0,1-.679-1.658c1.939.218,3.008.329,3.16.347a8.822,8.822,0,0,1,4.123,1.787,8.553,8.553,0,0,1,1.484,1.568,6.119,6.119,0,0,1,.939,3.656A4.81,4.81,0,0,1,208.709,169.412Zm-5.064-14.975a7.548,7.548,0,0,1-1.068-1.886c-.476-.934-.788-1.55-.887-1.815,1.175.583,2.139,1.056,2.876,1.433a64.122,64.122,0,0,1,5.687,3.143,7.783,7.783,0,0,1,2.662,2.578,5.707,5.707,0,0,1,.592,1.884Zm23.2-2.1c-1.654,1.634-2.656,2.385-3.021,2.276a2.966,2.966,0,0,1-.669,2.571,16.035,16.035,0,0,1-4.3,2.874c-2.224,1-3.438,1.415-3.7,1.231-.233-.164-.264-.309-.109-.44.692-.373,1.41-.709,2.1-1.069a6.721,6.721,0,0,0,1.73-1.246c.706-.721,1.122-2.048,1.142-3.975-.084-1.9-.529-2.988-1.325-3.322a6.911,6.911,0,0,0-2.993.22c-.521.074-1.281.215-2.261.416-.463-.469-.813-.816-1.046-1.033a6.414,6.414,0,0,1-1.16-1.349c2.02-.306,3.124-.5,3.276-.519a9.878,9.878,0,0,1,4.631.524,7.74,7.74,0,0,1,1.942,1.068,7.494,7.494,0,0,1,2.319,2.772,5.584,5.584,0,0,1,.4,1.2,23.821,23.821,0,0,1,1.378-2.1,11.034,11.034,0,0,0,1.572-3.148,8.664,8.664,0,0,0-.238-4.421c-.5-1.387-1.258-2.167-2.172-2.34a2.884,2.884,0,0,0-.608-.038,5.583,5.583,0,0,1,1.4,1.385,2.2,2.2,0,0,1-.524,1.914,2.8,2.8,0,0,1-2.375,1.309,7.779,7.779,0,0,1-2.34-.44,7.039,7.039,0,0,1-2.372-2.051c-.99-1.109-1.291-1.894-.929-2.434.337-.458,1.264-.825,2.841-1.1a12.266,12.266,0,0,1,4.305-.178,10.033,10.033,0,0,1,5.389,2.492c1.608,1.611,1.922,3.233.983,4.786A32.5,32.5,0,0,1,226.85,152.337Z" transform="translate(-87.533 -130.229)"/></g><g transform="translate(74.981 193.364)"><path class="b" d="M74.251,139.777c.3-.1.712-.238,1.3-.436a3.208,3.208,0,0,0-.7-.309,6.383,6.383,0,0,1-1.035-.491,5.727,5.727,0,0,1-.846-.727,1.567,1.567,0,0,0-.764-.479,6.45,6.45,0,0,0,.155,1.5,5.071,5.071,0,0,0,.42,1.415A11.391,11.391,0,0,0,74.251,139.777Z" transform="translate(-50.394 -125.592)"/><path class="b" d="M121.5,180.563a4.042,4.042,0,0,1-.973.364,1.452,1.452,0,0,0-.721.458,6.784,6.784,0,0,0,1.416.638,10.888,10.888,0,0,0,1.429.448,11.94,11.94,0,0,0,.131-1.618c.023-.324.045-.767.086-1.4a2.868,2.868,0,0,0-.537.459A4.443,4.443,0,0,1,121.5,180.563Z" transform="translate(-19.326 -98.105)"/><path class="b" d="M83.7,157.879a5.955,5.955,0,0,0-.623.017.876.876,0,0,0-.45.964,2.1,2.1,0,0,0,.552,1.106c.221.281.393.385.519.311a5.012,5.012,0,0,0,.876-1.17c.215-.448.2-.745.046-.947A1.468,1.468,0,0,0,83.7,157.879Z" transform="translate(-43.602 -112.185)"/><path class="b" d="M278.767,130.229c-10.924,40.9-48.229,70.233-92.575,70.233a95.538,95.538,0,0,1-92.461-70.233H59.007A129.494,129.494,0,0,0,186.192,234.313c62.66,0,114.936-45.007,127.026-104.084Zm7.835,7.534c2.509-.081,4.682-.066,6.525.058a9.782,9.782,0,0,1,3.656.868,6.574,6.574,0,0,1,1.618,1.16l-11.25.188A8.358,8.358,0,0,1,285.193,139c-.917-.552-1.514-.916-1.793-1.111C284.7,137.826,285.773,137.783,286.6,137.763ZM159.323,202.83a6.193,6.193,0,0,0,.659-.524,4.415,4.415,0,0,0,.676,1.064c.367.481.615.734.749.77.079.02.354-.132.83-.511a6.577,6.577,0,0,1,.841-.573l1.7,1.932c-.412.4-.853.826-1.306,1.2s-.719.552-.787.537a8.345,8.345,0,0,1-.9-.916c-.542-.59-.808-.911-.818-.929-.253.169-.5.334-.76.479a3.737,3.737,0,0,0-.712.526,3.452,3.452,0,0,1-1.054-.983,5.069,5.069,0,0,1-.62-.965C158.525,203.407,159.026,203.037,159.323,202.83ZM87.89,137.866a3.021,3.021,0,0,1,.474-.9c.853.43,1.5.727,1.869.909.44.233.7.365.787.4a3.781,3.781,0,0,0-.593,1,1.99,1.99,0,0,0-.278.949,3.71,3.71,0,0,0,.964.522,8.313,8.313,0,0,1,.963.532l-.752,2.2c-.61-.207-1.241-.428-1.825-.689a3.147,3.147,0,0,1-.909-.5,5.753,5.753,0,0,1,.344-1.14,6.553,6.553,0,0,1,.319-1.046c-.293-.165-.57-.327-.841-.5a4.491,4.491,0,0,0-.853-.441A4.2,4.2,0,0,1,87.89,137.866Zm-6.812,27.722a19.243,19.243,0,0,1-1.993-.4,2.913,2.913,0,0,1-1.031-.393,7.248,7.248,0,0,1,.144-1.38c.126-.848.122-1.259.144-1.291-.068-.017-.392-.145-.988-.38a7.624,7.624,0,0,0-.96-.37,6.427,6.427,0,0,1,.145-1.489,3.616,3.616,0,0,1,.245-1.2c1.04.284,1.7.509,2.072.651s.658.251.868.324a4.291,4.291,0,0,0-.416,1.274c-.109.615-.136,1,.015,1.117a1.627,1.627,0,0,0,.623.3q1.42.521,1.5.549Zm.159-8.022-.013,0-.1-.211-.114-.225.012,0-1.4-3.094-.023,0-1.355-3.325-.028.007L77.16,148.06a1.389,1.389,0,0,1,.676-1.752c.683-.312,1.375-.611,2.082-.9a3.514,3.514,0,0,0-1.438-.479c-1.317-.3-1.987-.7-2.006-1.188a17.129,17.129,0,0,0-.248-2.429,16.739,16.739,0,0,0-.256-2.575,13.643,13.643,0,0,1,2.786.431,9.81,9.81,0,0,1,2.967.932,15.707,15.707,0,0,1,1.555,1.243c.764.616,1.583,1.327,2.507,2.1a1.4,1.4,0,0,0,.521-.2,1.564,1.564,0,0,1,.522-.2c.5.164.906.281,1.213.364,1.115.269,2,.5,2.747.679a17.18,17.18,0,0,1-2.509.892q-2.266.719-4.5,1.469c-1.489.506-2.267.792-2.342.853a.789.789,0,0,0-.306.7c.069.241.165.615.345,1.1l.074.195,1.435,3.462,0,0,1.75,3.778,3.1,5.908a11.721,11.721,0,0,0,1.36-1.206,9.2,9.2,0,0,0,1.443-1.679c.357.063.973.137,1.854.207.585.043,1.24.094,2.006.116-.38.526-.717.945-.978,1.239a9.338,9.338,0,0,1-2.264,2.028,5.783,5.783,0,0,1-1.018.478c-.316.122-.831.278-1.54.466a2.609,2.609,0,0,1-.4.1c-.183.031-.681.152-1.5.347a12.134,12.134,0,0,1-1.724.326Zm6.862,9.389c.481-.157,1.168-.375,2.053-.663l3.176,4.808a3,3,0,0,0,1.187-1.324,4.579,4.579,0,0,0,.567-1.6c.028-.2.068-.5.121-.917a1.852,1.852,0,0,0-.05-.727l3.968-.719a3.7,3.7,0,0,1-.058,1.261,5.42,5.42,0,0,1-.638,1.9,7.514,7.514,0,0,1-1.393,1.879,6.161,6.161,0,0,1-1.554,1.2,1.888,1.888,0,0,1-.334.2c-.152.076-.359.182-.616.309a13.185,13.185,0,0,1-2.335.949c-.945.264-1.534.2-1.785-.183L86.565,167.4C86.664,167.394,87.175,167.249,88.1,166.954Zm57.853,41.2c-.165.435-.407,1.066-.707,1.9a10.615,10.615,0,0,1-.864,1.377c-.461.635-.967,1.311-1.532,2.02a.6.6,0,0,1-.585.241,1.418,1.418,0,0,1-.671-.193l-3.185-1.274.025-.046L135.32,210.8l0,.012-.178-.089-.261-.116,0-.01-2.942-1.449-.013.021-2.165-1.109.165-1.073-1.068.554-3.452-1.988a1.386,1.386,0,0,0,0-.246c-.058-.3-.114-.5-.207-.565-.056-.033-.213-.008-.479.081s-.453.106-.55.048l-3.626-2.314a5.2,5.2,0,0,0,0-.535c-.018-.172-.04-.271-.084-.3a1.654,1.654,0,0,1-.44.16,1.138,1.138,0,0,1-.815-.193l-2.031-1.423.033-.035-2.742-1.977-.017.026-2.877-2.309-.017.015-2.856-2.416.668-1.811c-.385.135-.721.226-1.04.311a8.638,8.638,0,0,1-1.109.24l-3.89-3.662.045-.036L100.96,186.2l-.007.005-.1-.109-.238-.238.015-.012-2.107-2.319-.028.018-1.547-1.773a11.122,11.122,0,0,1-4.6.238c-1.811-.221-2.983-.754-3.557-1.542a7.05,7.05,0,0,1-1.264-3.251c-.345-1.464-.263-2.334.157-2.535a.225.225,0,0,1,.319.092,9.609,9.609,0,0,0,.552,1.294,5.414,5.414,0,0,0,.6,1.177,5.139,5.139,0,0,0,.721.831,3.376,3.376,0,0,0,1.054.65,18.159,18.159,0,0,0,2.337,1.058,11.429,11.429,0,0,0,2.507.53,8.343,8.343,0,0,1-1-1.515c-.646-1.473-.5-2.456.54-3.033a13.627,13.627,0,0,1,3.912-1.016c2.33-.4,3.786-.293,4.365.375.388.479.235,1.218-.453,2.231a11.822,11.822,0,0,1-2.7,2.838l.646.772h0l2.852,3.1h0L106.6,186.7l-.025.02,3.284,3.076a2.522,2.522,0,0,0,.169-1.208,1.853,1.853,0,0,0-.646-1.368c-.185-.139-.35-.274-.521-.379s-.291-.193-.374-.245a13.947,13.947,0,0,1,1.378-.438c.869-.261,1.6-.486,2.129-.616a1.516,1.516,0,0,1,.767.046,5.267,5.267,0,0,1,2.262,1.121,2.893,2.893,0,0,1,1.041,2.61,2.743,2.743,0,0,1-.749,1.872,3.3,3.3,0,0,1-1.373.638,7.6,7.6,0,0,0-1.233.431l.964.778.01-.01,2.927,2.332,0-.005,3.428,2.453-.018.02,2.142,1.481a.7.7,0,0,0,.726-.116,4.653,4.653,0,0,0,.587-.635q1.066-.531,1.616-.77a6.477,6.477,0,0,1,2.041-.714,14.569,14.569,0,0,1-2.13,1.939c-.345.288-.849.658-1.514,1.134l3.021,1.919a.426.426,0,0,0,.5-.013,2,2,0,0,0,.491-.5c.076-.1.159-.226.256-.377a26.359,26.359,0,0,1,2.578-1.259,4.085,4.085,0,0,1,1.013-.289,5.783,5.783,0,0,0-.433.5q-.218.288-.874,1.2a17.92,17.92,0,0,1-1.34,1.4c-.089.091-.208.216-.357.379l2.023,1.124c.058.03.121-.013.2-.136a4.244,4.244,0,0,0,.312-.611,4.475,4.475,0,0,1,.314-.621c.572-.327,1.177-.64,1.806-.929.732-.34,1.177-.506,1.309-.431l-1.415,2.482a1.57,1.57,0,0,0-.193.973c.025.355.126.577.289.668l.352.192,3.727,1.813,3.49,1.532-.015.025,2.415.965c.061-.016.144-.139.251-.357a34.938,34.938,0,0,0,1.33-3.738c.326-.985.673-2.034,1.023-3.127-.091-.233-.157-.408-.193-.521a2.489,2.489,0,0,1-.182-.628q1.068-.932,1.823-1.56c1-.874,1.567-1.284,1.7-1.228a5.935,5.935,0,0,1-.215.7,1.619,1.619,0,0,0-.1,1.041,12.048,12.048,0,0,0,.75,1.443,5.45,5.45,0,0,0,.995,1.449l-3.3,2.2C146.791,205.929,146.494,206.709,145.952,208.153Zm7.508-2.848a61.535,61.535,0,0,1-1.927,6.077,10.939,10.939,0,0,1-1.991,3.388,8.822,8.822,0,0,1-1.658,1.363l2.929-10.369a11.079,11.079,0,0,1,1.707-1.836c.869-.84,1.433-1.368,1.7-1.58C153.914,203.566,153.663,204.554,153.46,205.306Zm27.232,21.922c-.42.476-.678.707-.764.7a11.253,11.253,0,0,1-1.238-.8c-.6-.456-.975-.762-1.135-.886-.331.294-.635.565-.922.823a2.213,2.213,0,0,0-.469.488,6.809,6.809,0,0,1-1.345-.813,4.515,4.515,0,0,1-.985-.944c.854-.892,1.41-1.458,1.664-1.658.089-.079.19-.185.307-.311a10.168,10.168,0,0,0,1.036.947,3.092,3.092,0,0,0,1.054.673c.083.008.339-.215.76-.648a5.772,5.772,0,0,1,.79-.8l2.36,1.818A16.5,16.5,0,0,1,180.692,227.228Zm10.139-4.955-.388.022v-.022l-3.4.008v.013l-3.813-.094v.021l-1.828-.05a2.006,2.006,0,0,1-1.706-1.129,4.361,4.361,0,0,1-.374-1.32l-1.312,2.22-4.156-.411,0,.017-3.862-.468,0,0-.112-.018-.367-.041,0-.017-3.066-.5-.008.031L163.623,220a1.653,1.653,0,0,1-1.332-1.519q-.035-1.15-.035-2.329a3.116,3.116,0,0,0-.975.97c-.764,1.043-1.373,1.428-1.821,1.187-.64-.345-1.41-.673-2.277-1.12-1.254-.585-2.059-.947-2.423-1.059a12.51,12.51,0,0,1,1.43-2.3,8.531,8.531,0,0,1,1.958-2.2,9.575,9.575,0,0,1,1.692-.681c.838-.314,1.79-.691,2.838-1.091a1.682,1.682,0,0,0,.017-.572,1.575,1.575,0,0,1,.015-.574c.332-.354.592-.653.79-.874.656-.8,1.2-1.484,1.646-2.039a17.917,17.917,0,0,1-.139,2.714c-.129,1.6-.243,3.2-.355,4.781s-.132,2.441-.107,2.534a1,1,0,0,0,.534.623,4.343,4.343,0,0,0,1.12.347l.2.041,4.16.666h0l3.257.388,0-.007,5.242.489a4.058,4.058,0,0,0,.273-1.2c.069-.573.129-1.142.178-1.691a14.956,14.956,0,0,1,1.008-1.352c.625-.8.977-1.253,1.068-1.33a1.267,1.267,0,0,1,.013.187c-.008.174-.017.349-.023.507-.023.443-.061.944-.124,1.489s-.157,1.18-.283,1.889a1.347,1.347,0,0,0,.331,1.192,1.364,1.364,0,0,0,1.044.476l.23.013,3.748.088v0l4.213-.017v0l5.589-.314a12.233,12.233,0,0,0-.474-1.329,7.171,7.171,0,0,0-1.706-2.481l1.263-3.523a6.359,6.359,0,0,1,1.127,1.418,14.84,14.84,0,0,1,1.349,2.525,3.884,3.884,0,0,1,.217.674c.058.235.107.545.159.922.046.355.078.654.094.894s.035.473.048.711c-.061.648-.131,1.362-.221,2.157s-.167,1.3-.22,1.56l-7.03.428,0,.008h-.106Zm5.07,5.092a3.973,3.973,0,0,1-1.3.957c-.116.059-.58-.238-1.365-.828s-1.175-.955-1.18-1.068c-.007-.141.324-.58,1-1.307a7.067,7.067,0,0,1,1.18-1.165A11.137,11.137,0,0,1,195.579,225a6.915,6.915,0,0,1,1.309,1.185C196.91,226.346,196.579,226.738,195.9,227.366Zm42.116-16.323a1.355,1.355,0,0,1-.588.357l-3.107,1.453-.031-.055-3.135,1.3.015.022L227.7,215.4l.015.03-3.553,1.154-1.542-1.37c-.038.329-.068.673-.1.982a6.129,6.129,0,0,1-.2,1.011l-5.148,1.443-.02-.056-3.3.807.007.026-3.647.693,0,.017-1.6.327c-.274.023-.484.031-.62.031a1.786,1.786,0,0,1-.924-.281,13.8,13.8,0,0,1-1,3.728c-.838,1.866-1.818,2.853-2.9,3.028a11.055,11.055,0,0,1-4.112-1.006c-1.9-.793-2.867-1.428-2.909-1.841-.016-.157.016-.24.1-.241.507.269,1.011.552,1.507.775a3.645,3.645,0,0,0,1.7.3,4.92,4.92,0,0,0,1.613-.565,6.515,6.515,0,0,0,1.968-1.631c.357-.466.709-.886,1.064-1.311.767-.957,1.1-1.709.995-2.223a4.482,4.482,0,0,0-1.213-1.654c-.355-.378-.727-.749-1.1-1.122.21-.709.416-1.4.613-2.063a10.461,10.461,0,0,1,.4-1.22c.631.757,1.273,1.5,1.934,2.286a3.01,3.01,0,0,0,2.824,1.243l.139-.021,3.677-.7h0l4.1-1,.013.035,4.322-1.2a3.412,3.412,0,0,0-1.137-.734,2.3,2.3,0,0,0-1.618-.116,2.822,2.822,0,0,0-.593.21c-.17.089-.3.15-.382.19a12.479,12.479,0,0,1,.084-1.354c.068-.853.141-1.527.2-2.064-.013-.111.111-.3.349-.608a4.338,4.338,0,0,1,2-1.307,4.346,4.346,0,0,1,4.66,1.991,2.806,2.806,0,0,1,.1,1.431,5.6,5.6,0,0,0-.063,1.216l1.178-.4-.007-.017,3.515-1.282,0-.007,3.89-1.61.026.043,2.368-1.066c.028-.05-.023-.183-.157-.407-.319-.552-1.134-1.649-2.456-3.361-.658-.864-1.37-1.79-2.127-2.776-.264-.086-.453-.155-.578-.2a3.014,3.014,0,0,1-.669-.286c-.1-.9-.174-1.658-.221-2.286-.116-1.216-.142-1.925-.007-1.988a4.911,4.911,0,0,1,.486.608,1.938,1.938,0,0,0,.851.739c.654.19,1.244.334,1.767.448a7.7,7.7,0,0,0,1.9.228l-.175,3.709q.1.159,1.492,2.142c.269.388.684.962,1.226,1.714a10.965,10.965,0,0,1,.656,1.494q.414,1.106.815,2.38A.511.511,0,0,1,238.018,211.042Zm-1.534-11.06a10.948,10.948,0,0,1-.529-2.414c-.185-1.145-.286-1.879-.306-2.19.876.978,1.585,1.793,2.127,2.434q2.481,2.9,4.1,5.217a10.5,10.5,0,0,1,1.694,3.543,7.148,7.148,0,0,1,.142,2.043Zm8.524-7.809a10.284,10.284,0,0,1-1.383.083c-.892-.01-1.342-.023-1.368-.03-.013.286-.036.567-.069.838a2.786,2.786,0,0,0,.041.909,5.942,5.942,0,0,1-1.6.053,6.991,6.991,0,0,1-1.248-.169c-.008-.835-.008-1.411,0-1.755a5.822,5.822,0,0,0,0-.747,3.965,3.965,0,0,0,1.357.149,3.146,3.146,0,0,0,1.154-.045c.073-.043.109-.335.122-.878a4.947,4.947,0,0,1,.059-.924l2.826.007c.073.534.126,1.071.152,1.625S245.066,192.136,245.009,192.174Zm51.753-47.294a2.334,2.334,0,0,0-.521.595,3.664,3.664,0,0,0-.365.858c.061.073.01.215-.068.454a2.32,2.32,0,0,1-.175.428l-1.04,2.677.025.005-1.506,3.581.02.007-1.663,3.59.015,0-.965,1.963c-.081.162.089.372.578.683q.625.4.567.793l-6.25,3.956c.012.116.261.377.815.813a1.025,1.025,0,0,1,.177,1.486l-.833,1.377-.017-.007-2.011,3.32-.048-.023-1.844,2.793.025.017-1.72,2.324c-.043.17-.18.238-.37.268a.862.862,0,0,1-.557-.124l-1.58-.793c.126.165.388.532.787,1.117s.615.912.656.977l-1,1.344.025.017-2.484,2.991.013.007-2.464,2.816.023.023-1.626,1.768a5.725,5.725,0,0,0-1.036.035c-1.436.066-2.253.1-2.436.122.026.04.16.359.425.993a13.423,13.423,0,0,0,.575,1.39l-3.74,3.586.025.025-2.955,2.519.012.015-2.815,2.249.028.017-2.289,1.734A1.991,1.991,0,0,1,255,199.7c-.686-.45-1.312-.838-2-1.324a2.151,2.151,0,0,0,.177,1.258c.4,1.169.345,1.846-.16,2.025-.669.289-1.506.583-2.446.934-1.3.577-2.15.892-2.484,1.086a11.96,11.96,0,0,1-1.068-2.433,8.56,8.56,0,0,1-.689-2.806,7.944,7.944,0,0,1,.5-1.634c.3-.767.583-1.689.914-2.682a2.1,2.1,0,0,0-.489-.365,2.108,2.108,0,0,1-.486-.367c-.1-.455-.175-.821-.25-1.092-.241-.929-.451-1.72-.659-2.391a15.366,15.366,0,0,1,2.233,1.712q1.963,1.609,3.925,3.193c1.314,1.036,2.025,1.588,2.12,1.626a1.441,1.441,0,0,0,.927.033,4.379,4.379,0,0,0,1-.643l.169-.121,2.94-2.327h-.007l2.861-2.418-.007,0,3.9-3.77-7.225-.271c-.428-.473-.9-1.033-1.4-1.687s-1.059-1.436-1.663-2.352l3.917-6.614,2.452,2.634a13.064,13.064,0,0,1-.9,1.517c-1.316,2.129-2.1,3.375-2.294,3.776l10.218-.164.5-.519h0l2.481-2.8v0l2.413-2.862h0l1.934-2.507-8.825-3.643c-.354-.608-.633-1.071-.836-1.395a21.572,21.572,0,0,1-1.1-1.924c.048-.14,1.786.575,5.188,2.1,3.411,1.5,5.412,2.4,6,2.7.544.289.937.281,1.168-.028l.131-.174,2.358-3.487.017.012,1.963-3.188.028.012,1.273-2.066c.056-.221-.035-.433-.322-.674a6.873,6.873,0,0,1-1.248-1.279,4.253,4.253,0,0,1-.744-2.289,3.379,3.379,0,0,1,.228-2.117,1.123,1.123,0,0,1,.573-.57,1.191,1.191,0,0,1,.6.071c.084.031.23.071.441.132a3.217,3.217,0,0,0,.646.1,8.707,8.707,0,0,0,2.177-.284c.932-.19,1.469-.413,1.6-.664l.119-.228,1.6-3.385h0l1.489-3.441-.015,0,1.1-2.783c.007-.061-.15-.117-.466-.172a39.981,39.981,0,0,0-4.133-.245c-1.068-.041-2.21-.086-3.426-.126-.255.141-.441.24-.564.3a2.272,2.272,0,0,1-.706.291c-.6-.416-1.17-.825-1.709-1.221-.917-.673-1.342-1.086-1.287-1.246a7.306,7.306,0,0,0,1,.1,1.588,1.588,0,0,0,.864-.178c.712-.527,1.4-.982,1.988-1.395a4.747,4.747,0,0,0,1.122-.944c.476.474.838.836,1.076,1.076.727.74,1.168,1.185,1.319,1.324.122.017.978.089,2.567.2.471.04,1.167.084,2.076.149q.58.037,1.81-1.154c.818-.8,1.392-1.21,1.924-1.149a5.161,5.161,0,0,1,1.935.651,5.808,5.808,0,0,1,1.17.909,5.506,5.506,0,0,1-.876.395A2.507,2.507,0,0,0,296.762,144.88Z" transform="translate(-59.007 -130.229)"/><path class="b" d="M174.193,169.6a2.412,2.412,0,0,0,.048.663,3.747,3.747,0,0,1,.038,1,5.941,5.941,0,0,1-.286.962.956.956,0,0,0-.1.764,7.289,7.289,0,0,0,1.477-.628c.631-.311,1.074-.552,1.34-.719a13.3,13.3,0,0,0-1.324-1.091C175.115,170.331,174.719,170.01,174.193,169.6Z" transform="translate(15.948 -104.535)"/><path class="b" d="M195.327,148.35a1.829,1.829,0,0,0-.3,1.438l.894-.512c.372-.23.649-.393.81-.5.316-.2.459-.332.441-.408a3.589,3.589,0,0,0-1.016-.253C195.729,148.057,195.448,148.136,195.327,148.35Z" transform="translate(29.733 -118.569)"/></g></g></g></svg>