<svg xmlns="http://www.w3.org/2000/svg" width="28.054" height="25.248" viewBox="0 0 28.054 25.248"><defs><style>.a{fill:#3d4147;}</style></defs><path class="a" d="M27.248,4.805H22.8L20.235,2H11.819L9.252,4.805H4.805A2.805,2.805,0,0,0,2,7.611V24.443a2.805,2.805,0,0,0,2.805,2.805H27.248a2.805,2.805,0,0,0,2.805-2.805V7.611a2.805,2.805,0,0,0-2.805-2.805m0,19.637H4.805V7.611h5.681l2.567-2.805H19l2.567,2.805h5.681V24.443M16.027,9.013a7.013,7.013,0,1,0,7.013,7.013,7.013,7.013,0,0,0-7.013-7.013m0,11.221a4.208,4.208,0,1,1,4.208-4.208,4.208,4.208,0,0,1-4.208,4.208Z" transform="translate(-2 -2)"/></svg>