<svg xmlns="http://www.w3.org/2000/svg" width="40" height="40" viewBox="0 0 40 40"><defs><style>.a{fill:#3d4147;}.b{fill:none;}.c{fill:#fff;}</style></defs><g transform="translate(-0.339 -0.339)"><circle class="a" cx="20" cy="20" r="20" transform="translate(0.339 0.339)"/><g transform="translate(7.288 9.288)"><path class="b" d="M0,0H22.1V22.1H0Z"/><path class="c" d="M16.677,22.1H10.645a3.722,3.722,0,0,1-2.662-1.133L1.26,13.963l1.906-1.685a1.844,1.844,0,0,1,2.081-.249l2.22,1.179v-8.8a2.3,2.3,0,0,1,2.3-2.3,2.705,2.705,0,0,1,.47.046,2.3,2.3,0,0,1,4.19-1.142A2.264,2.264,0,0,1,15.3.848a2.3,2.3,0,0,1,2.3,2.3v.258a2.518,2.518,0,0,1,.46-.046,2.3,2.3,0,0,1,2.3,2.3V18.42A3.683,3.683,0,0,1,16.677,22.1ZM3.912,14.073l5.4,5.618a1.863,1.863,0,0,0,1.326.571h6.042a1.847,1.847,0,0,0,1.842-1.842V5.665a.46.46,0,1,0-.921,0v5.388H15.756v-7.9a.46.46,0,1,0-.921,0v7.9H12.993V2.312a.46.46,0,0,0-.921,0v8.74H10.23V4.412a.456.456,0,0,0-.46-.46.462.462,0,0,0-.46.46V16.265L4.382,13.659l-.47.414Z" transform="translate(-0.1 -0.001)"/></g></g></svg>