<svg xmlns="http://www.w3.org/2000/svg" width="40" height="40" viewBox="0 0 40 40"><defs><style>.a{fill:#3d4147;}.b{fill:#fff;}</style></defs><g transform="translate(-0.339 -0.339)"><circle class="a" cx="20" cy="20" r="20" transform="translate(0.339 0.339)"/><g transform="translate(11.341 11.301)"><path class="b" d="M17.2,1.617a5.482,5.482,0,0,0-7.7,0l-7.91,7.91a5.444,5.444,0,1,0,7.7,7.7l7.91-7.91a5.451,5.451,0,0,0,0-7.7ZM8.2,16.106a3.877,3.877,0,1,1-5.483-5.483l3.4-3.4L11.594,12.7Zm7.9-7.9-3.4,3.4L7.212,6.128l3.4-3.4a3.877,3.877,0,1,1,5.483,5.483Z" transform="translate(0 0)"/></g></g></svg>