<svg xmlns="http://www.w3.org/2000/svg" width="40" height="40" viewBox="0 0 40 40"><defs><style>.a{fill:#3d4147;}.b{fill:none;}.c{fill:#fff;}</style></defs><g transform="translate(-0.339 -0.339)"><circle class="a" cx="20" cy="20" r="20" transform="translate(0.339 0.339)"/><g transform="translate(7.339 7.339)"><path class="b" d="M0,0H25.6V25.6H0Z"/><path class="c" d="M18.8,4.635a.5.5,0,0,1-.245-.064,12.2,12.2,0,0,0-5.941-1.5,12.2,12.2,0,0,0-5.941,1.5.535.535,0,0,1-.512-.939,13.571,13.571,0,0,1,12.885-.011A.54.54,0,0,1,18.8,4.635Zm-15.263,5.6a.556.556,0,0,1-.309-.1A.532.532,0,0,1,3.1,9.392,11.028,11.028,0,0,1,7.1,5.9a12.312,12.312,0,0,1,11-.011,11.07,11.07,0,0,1,4,3.467.536.536,0,0,1-.875.619A10.013,10.013,0,0,0,17.6,6.842a11.239,11.239,0,0,0-10.026.011A10.119,10.119,0,0,0,3.95,10.01a.465.465,0,0,1-.416.224ZM10.2,23.109a.5.5,0,0,1-.373-.16,10.783,10.783,0,0,1-2.144-2.816A9.468,9.468,0,0,1,6.563,15.5,5.907,5.907,0,0,1,12.6,9.754,5.907,5.907,0,0,1,18.637,15.5a.533.533,0,0,1-1.067,0,4.839,4.839,0,0,0-4.97-4.683A4.839,4.839,0,0,0,7.629,15.5a8.356,8.356,0,0,0,.992,4.107,10.1,10.1,0,0,0,1.973,2.581.548.548,0,0,1,0,.757.585.585,0,0,1-.395.16Zm7.648-1.973a5.744,5.744,0,0,1-3.307-.949A5.679,5.679,0,0,1,12,15.5a.533.533,0,0,1,1.067,0,4.588,4.588,0,0,0,2.069,3.8,4.677,4.677,0,0,0,2.709.757,7.049,7.049,0,0,0,1.109-.107.536.536,0,1,1,.181,1.056,7.284,7.284,0,0,1-1.291.128Zm-2.144,2.2a.624.624,0,0,1-.139-.021,8.322,8.322,0,0,1-3.968-2.24A7.783,7.783,0,0,1,9.283,15.5a3.216,3.216,0,0,1,3.285-3.136A3.216,3.216,0,0,1,15.853,15.5a2.224,2.224,0,0,0,4.437,0,7.523,7.523,0,0,0-7.733-7.285,7.787,7.787,0,0,0-7.05,4.3A6.862,6.862,0,0,0,4.877,15.5a10.6,10.6,0,0,0,.715,3.851.521.521,0,0,1-.309.683.529.529,0,0,1-.683-.309A11.883,11.883,0,0,1,3.822,15.5a8.013,8.013,0,0,1,.725-3.456,8.852,8.852,0,0,1,8.01-4.906,8.592,8.592,0,0,1,8.8,8.352,3.289,3.289,0,0,1-6.57,0,2.148,2.148,0,0,0-2.219-2.069,2.148,2.148,0,0,0-2.219,2.069A6.717,6.717,0,0,0,12.344,20.3a7.253,7.253,0,0,0,3.488,1.973.529.529,0,0,1,.373.651.52.52,0,0,1-.5.405Z" transform="translate(0.2 0.133)"/></g></g></svg>