<svg xmlns="http://www.w3.org/2000/svg" width="26.121" height="30.214" viewBox="0 0 26.121 30.214"><path d="M22.343,30.224H14.094a5.09,5.09,0,0,1-3.64-1.549L1.26,19.09l2.607-2.3a2.521,2.521,0,0,1,2.846-.34l3.035,1.612V6.03A3.15,3.15,0,0,1,12.9,2.882a3.7,3.7,0,0,1,.642.063,3.141,3.141,0,0,1,5.73-1.562,3.1,3.1,0,0,1,1.184-.227A3.15,3.15,0,0,1,23.6,4.3v.353a3.443,3.443,0,0,1,.63-.063,3.15,3.15,0,0,1,3.149,3.149V25.186A5.036,5.036,0,0,1,22.343,30.224ZM4.887,19.242l7.38,7.683a2.548,2.548,0,0,0,1.814.781h8.262a2.526,2.526,0,0,0,2.519-2.519V7.743a.63.63,0,1,0-1.259,0v7.368H21.083V4.3a.63.63,0,0,0-1.259,0V15.111H17.305V3.159a.63.63,0,1,0-1.259,0V15.111H13.527V6.03a.624.624,0,0,0-.63-.63.632.632,0,0,0-.63.63V22.239L5.529,18.675l-.642.567Z" transform="translate(-1.26 -0.01)"/></svg>