<svg xmlns="http://www.w3.org/2000/svg" width="14.178" height="14.178" viewBox="0 0 14.178 14.178"><defs><style>.a{fill:#8a8a8f;}</style></defs><path class="a" d="M9.3,6.151h4.726V7.726H9.3ZM9.3,9.3h4.726v1.575H9.3Zm0,3.151h4.726v1.575H9.3Zm-3.151-6.3H7.726V7.726H6.151Zm0,3.151H7.726v1.575H6.151Zm0,3.151H7.726v1.575H6.151ZM16.47,3H3.709A.706.706,0,0,0,3,3.709V16.47a.761.761,0,0,0,.709.709H16.47a.835.835,0,0,0,.709-.709V3.709A.761.761,0,0,0,16.47,3ZM15.6,15.6H4.575V4.575H15.6Z" transform="translate(-3 -3)"/></svg>