<svg xmlns="http://www.w3.org/2000/svg" width="14.091" height="11.272" viewBox="0 0 14.091 11.272"><defs><style>.a{fill:#8a8a8f;}</style></defs><path class="a" d="M3.409,4H14.682a1.409,1.409,0,0,1,1.409,1.409v8.454a1.409,1.409,0,0,1-1.409,1.409H3.409A1.409,1.409,0,0,1,2,13.863V5.409A1.409,1.409,0,0,1,3.409,4m0,1.409v8.454H8.341V5.409H3.409m11.272,8.454V5.409h-.874a1.767,1.767,0,0,1,.134.8,2.8,2.8,0,0,1-.5,1.141L11.8,9.143l2.339-.014.007.86-3.664-.021-.028-.7s2.149-2.276,2.254-2.48.5-1.374-.493-1.374a.794.794,0,0,0-.768.916l-1.085.007a2.138,2.138,0,0,1,.268-.923H9.75v8.454h1.818l-.007-.606.683-.007a.783.783,0,0,0,.648-.74.618.618,0,0,0-.676-.7c-.092,0-.754.035-.754.613H10.391s.028-1.451,1.825-1.451c1.832,0,1.733,1.423,1.733,1.423a1.313,1.313,0,0,1-.782,1.212l.366.261h1.148M6.875,12.454H5.819V8.368L4.55,8.763V7.9l2.212-.789h.113Z" transform="translate(-2 -4)"/></svg>