<svg xmlns="http://www.w3.org/2000/svg" width="55.656" height="55.657" viewBox="0 0 55.656 55.657"><defs><style>.a{fill:#3d4147;}</style></defs><path class="a" d="M76.007,59.428c-.1.075-.827.577-1.608,1.115q.092-.608.151-1.228c.79-.845,1.824-1.95,1.938-2.063.311-.422-.221-.795-.621-.382-.161.167-.677.711-1.236,1.3.016-.345.025-.691.025-1.039,0-.177-.007-.353-.011-.529.642-.7,1.336-1.46,1.519-1.662.358-.4-.02-.868-.394-.553-.072.083-.6.666-1.165,1.286-.029-.451-.067-.9-.123-1.343.606-.638,1.262-1.328,1.434-1.511.342-.361,0-.807-.353-.521l-1.188,1.286c-.072-.453-.16-.9-.258-1.345.59-.671,1.294-1.474,1.373-1.566.223-.356-.225-.62-.519-.266l-1,1.2c-.1-.4-.217-.8-.34-1.192.427-.669.927-1.455,1.055-1.65.232-.356-.125-.679-.378-.385-.054.087-.473.8-.861,1.466-.111-.325-.231-.646-.357-.964.388-.722.873-1.626.991-1.842.2-.373-.174-.668-.4-.355-.051.1-.457.926-.808,1.649-.191-.448-.4-.886-.617-1.318.349-.6.732-1.259.837-1.432.2-.336-.137-.623-.36-.343-.046.08-.381.732-.695,1.349-.177-.334-.365-.661-.559-.985.28-.581.592-1.229.677-1.4.165-.324-.166-.566-.355-.293-.039.079-.3.736-.536,1.338q-.273-.437-.564-.859c.217-.592.485-1.319.557-1.5.125-.313-.2-.509-.354-.241-.033.086-.237.853-.4,1.466-.238-.334-.482-.662-.737-.981.156-.564.35-1.261.4-1.434.1-.3-.226-.462-.348-.2-.024.085-.144.837-.235,1.413q-.413-.506-.857-.986c.1-.562.226-1.226.263-1.4.067-.31-.267-.44-.365-.168-.016.083-.065.774-.1,1.341-.31-.328-.632-.644-.962-.953.024-.5.05-1.044.061-1.2.023-.3-.308-.381-.366-.112,0,.074.04.609.082,1.1-.366-.335-.745-.655-1.134-.965,0-.539.008-1.272.014-1.452.009-.294-.316-.357-.361-.092,0,.095.113.923.181,1.409q-.655-.513-1.349-.978c0-.465-.005-1.222-.019-1.313-.077-.256-.391-.152-.344.137.022.137.09.594.155,1.037-.387-.254-.784-.493-1.187-.723-.045-.537-.113-1.36-.13-1.556-.026-.3-.362-.323-.376-.051.012.114.233,1.155.3,1.491-.343-.19-.691-.37-1.044-.542-.072-.552-.173-1.31-.2-1.5-.046-.309-.4-.313-.395-.028.018.109.219.985.313,1.394a22.23,22.23,0,0,0-2.784-1.1l-.414.047.416.247a21.394,21.394,0,0,1,2.787,1.274h-.017s-1.454.37-1.59.414c-.255.127-.089.438.206.338.214-.073,1.167-.415,1.676-.6l.022.012.06.1s0-.026-.009-.071c.4.228.793.466,1.176.718H63.18s-1.459.317-1.59.36c-.243.125-.081.421.2.321l1.646-.584c.4.266.785.542,1.162.833.014.1.024.16.024.16l.019-.127c.073.057.144.117.217.174-.39-.046-1.644-.193-1.888-.226-.29-.039-.386.278-.128.348.134.015,1.677-.027,1.677-.027l.374-.066q.559.447,1.087.929l-.041-.009s-1.641-.1-1.775-.09c-.26.065-.172.385.12.352.223-.025,1.3-.117,1.8-.159.515.477,1.009.976,1.475,1.5-.221-.017-1.764-.136-1.893-.127-.269.062-.185.392.116.364.231-.021,1.362-.087,1.881-.116q.442.505.853,1.037c-.582-.079-1.555-.207-1.656-.207-.286.043-.224.4.093.391.207,0,1.112.012,1.719.023q.366.488.7,1c-.643.01-1.494.025-1.588.037-.3.083-.185.448.149.4.192-.027.977-.114,1.607-.184q.415.643.786,1.316c-.718-.04-1.775-.1-1.884-.1-.327.058-.245.46.118.445.227-.009,1.219-.027,1.929-.04q.378.719.7,1.471c-.77-.14-1.826-.332-1.938-.346-.357.009-.335.452.055.5.242.026,1.291.157,2.057.254q.3.724.541,1.475c-.791-.248-1.754-.55-1.862-.58-.386-.047-.432.431-.02.539.24.062,1.244.335,2.038.55q.2.673.358,1.364c-.774-.292-1.594-.6-1.7-.639-.412-.083-.5.429-.067.579l1.893.66q.159.812.257,1.645l-1.845-.9c-.432-.138-.589.4-.141.615l2.053.969c.051.6.079,1.217.079,1.835,0,.062,0,.123,0,.185-.791-.609-1.666-1.285-1.769-1.368-.422-.246-.713.284-.29.613.238.185,1.224.94,2.038,1.564q-.039.863-.145,1.707c-.7-.8-1.468-1.67-1.556-1.778-.39-.351-.812.142-.44.58.214.252,1.123,1.3,1.855,2.14q-.108.635-.253,1.257c-.712-.775-1.428-1.557-1.517-1.663-.421-.371-.867.161-.465.627.206.238,1.009,1.136,1.745,1.958-.151.538-.324,1.067-.514,1.586-.669-.976-1.447-2.114-1.53-2.249-.364-.427-.883.037-.55.555.2.305,1.052,1.593,1.722,2.6q-.331.787-.722,1.54c-.5-1.062-1.062-2.278-1.122-2.423-.29-.481-.876-.108-.632.457.144.333.778,1.739,1.275,2.841q-.474.819-1.017,1.589c-.325-1.173-.726-2.629-.763-2.791-.205-.523-.846-.252-.7.345.093.378.538,2.077.852,3.271q-.529.683-1.112,1.32c-.15-1.3-.338-2.939-.349-3.118-.125-.587-.846-.414-.8.241.032.426.219,2.388.345,3.7q-.565.555-1.171,1.069c-.036-1.391-.079-3.168-.071-3.361-.071-.633-.852-.525-.869.172-.01.454-.009,2.543-.008,3.948q-.758.574-1.568,1.079c.057-1.462.133-3.29.155-3.491-.026-.676-.862-.622-.932.116-.044.461-.189,2.519-.291,4q-.913.5-1.878.911c.376-1.527.882-3.568.953-3.78.12-.706-.756-.834-.99-.086-.157.5-.823,2.847-1.252,4.365A21.378,21.378,0,0,1,52.2,77.54a21.38,21.38,0,0,1-6.421-1.195c-.429-1.518-1.1-3.867-1.252-4.365-.235-.748-1.111-.62-.99.086.07.212.576,2.252.952,3.78q-.964-.41-1.878-.911c-.1-1.482-.247-3.54-.291-4-.071-.738-.906-.792-.932-.116.023.2.1,2.029.155,3.491q-.808-.5-1.568-1.079c0-1.406,0-3.495-.009-3.948-.016-.7-.8-.806-.869-.172.008.193-.036,1.97-.071,3.361q-.605-.513-1.171-1.069c.127-1.316.314-3.278.346-3.7.05-.655-.672-.827-.8-.241-.01.179-.2,1.82-.349,3.118q-.582-.638-1.112-1.32c.314-1.195.759-2.893.852-3.271.147-.6-.494-.868-.7-.345-.037.162-.438,1.618-.763,2.791q-.542-.769-1.017-1.589c.5-1.1,1.131-2.508,1.275-2.841.244-.565-.343-.938-.632-.457-.06.145-.626,1.362-1.122,2.423q-.39-.754-.722-1.54c.67-1.006,1.527-2.293,1.722-2.6.333-.517-.185-.981-.549-.555-.083.136-.861,1.274-1.53,2.249q-.287-.778-.514-1.586c.736-.822,1.538-1.72,1.744-1.958.4-.465-.043-1-.465-.627-.088.106-.8.888-1.516,1.663q-.146-.622-.254-1.257c.733-.842,1.641-1.887,1.856-2.14.372-.438-.05-.931-.44-.58-.089.108-.855.981-1.556,1.778q-.107-.844-.146-1.707c.815-.624,1.8-1.379,2.038-1.564.422-.329.132-.859-.291-.613-.1.083-.978.758-1.769,1.368,0-.062,0-.124,0-.185,0-.619.028-1.23.08-1.835l2.053-.969c.449-.213.291-.752-.14-.615l-1.845.9q.1-.833.258-1.645l1.893-.66c.435-.15.345-.662-.066-.579-.1.037-.924.347-1.7.639q.156-.691.357-1.364c.794-.215,1.8-.488,2.038-.55.411-.108.365-.586-.02-.539-.109.03-1.072.332-1.863.58q.244-.75.54-1.475c.766-.1,1.815-.228,2.056-.254.391-.043.413-.486.055-.5-.113.014-1.168.206-1.938.346q.325-.75.7-1.471c.71.013,1.7.031,1.929.04.363.015.445-.387.118-.445-.11,0-1.167.055-1.884.1q.369-.673.786-1.316c.63.069,1.414.157,1.607.184.335.046.446-.318.15-.4-.095-.012-.945-.027-1.589-.037q.338-.509.7-1c.607-.011,1.512-.026,1.719-.023.317,0,.379-.348.093-.391-.1,0-1.074.129-1.656.207q.41-.533.853-1.037c.518.029,1.65.1,1.88.116.3.028.386-.3.117-.364-.129-.009-1.672.11-1.893.127.466-.525.959-1.025,1.474-1.5.494.042,1.574.134,1.8.159.292.033.381-.287.121-.352-.134-.013-1.775.09-1.775.09l-.04.009q.527-.483,1.087-.929l.374.066s1.543.043,1.676.027c.258-.071.162-.388-.127-.348-.245.033-1.5.18-1.888.226.073-.058.144-.117.217-.174l.019.127.024-.16c.377-.291.765-.568,1.162-.833l1.645.584c.282.1.444-.2.2-.321-.13-.043-1.59-.36-1.59-.36H41.1c.383-.252.776-.49,1.176-.718l-.009.071.059-.1.022-.012c.508.183,1.462.526,1.676.6.3.1.46-.211.206-.338-.137-.044-1.591-.414-1.591-.414h-.016a21.363,21.363,0,0,1,2.787-1.274l.417-.247-.414-.047a22.283,22.283,0,0,0-2.783,1.1c.094-.409.294-1.285.312-1.394,0-.284-.348-.28-.395.028-.028.19-.129.949-.2,1.5-.353.173-.7.352-1.045.542.072-.336.293-1.376.3-1.491-.014-.272-.351-.247-.376.051-.017.2-.086,1.019-.131,1.556-.4.23-.8.469-1.187.723.065-.443.133-.9.155-1.037.047-.289-.267-.393-.345-.137-.013.091-.017.848-.019,1.313q-.693.465-1.349.978c.069-.486.182-1.315.181-1.409-.044-.264-.37-.2-.361.092.006.18.011.913.014,1.452-.388.31-.767.63-1.133.965.042-.487.086-1.023.082-1.1-.058-.269-.39-.189-.366.112.012.152.037.694.061,1.2-.33.309-.651.625-.961.953-.038-.568-.086-1.258-.1-1.341-.1-.272-.432-.142-.365.168.037.171.16.835.263,1.4q-.442.481-.857.986c-.09-.576-.209-1.328-.234-1.413-.122-.262-.443-.1-.349.2.054.174.248.871.4,1.434-.255.319-.5.647-.737.981-.161-.613-.365-1.38-.4-1.466-.152-.268-.479-.072-.354.241.071.179.339.907.556,1.5q-.292.423-.564.859c-.237-.6-.5-1.259-.535-1.338-.188-.274-.52-.031-.356.293.086.169.4.816.678,1.4-.194.324-.381.652-.559.985-.314-.617-.648-1.269-.695-1.349-.224-.279-.563.007-.36.343.1.173.488.831.836,1.432-.218.432-.426.871-.617,1.318-.352-.723-.757-1.553-.808-1.649-.231-.313-.61-.017-.405.355.118.216.6,1.119.991,1.842-.126.318-.246.639-.357.964-.388-.664-.807-1.38-.861-1.466-.253-.294-.609.029-.377.385.127.2.628.981,1.055,1.65-.123.393-.238.789-.34,1.192-.446-.535-.874-1.048-1-1.2-.294-.354-.741-.09-.519.266.079.092.783.9,1.373,1.566-.1.443-.186.891-.258,1.345L28.835,52.3c-.353-.285-.694.16-.353.521l1.434,1.511c-.055.444-.093.892-.122,1.343-.564-.619-1.093-1.2-1.166-1.286-.373-.315-.752.156-.393.553.182.2.877.961,1.518,1.662,0,.176-.011.352-.011.529,0,.348.009.695.025,1.039-.558-.589-1.074-1.134-1.236-1.3-.4-.413-.932-.04-.621.382.114.113,1.148,1.218,1.938,2.063.04.412.09.822.152,1.228-.781-.537-1.509-1.039-1.608-1.115-.494-.267-.81.351-.313.714.252.184,1.222.871,2.117,1.5q.155.756.361,1.494c-.874-.534-1.735-1.06-1.845-1.135-.507-.241-.79.4-.274.731.288.187,1.477.935,2.472,1.559.152.452.319.9.5,1.334-.978-.344-1.951-.687-2.077-.738-.547-.129-.69.551-.116.771.31.119,1.553.574,2.631.969q.232.494.486.976c-1.114-.053-2.3-.113-2.451-.126-.561.032-.5.724.11.771.331.026,1.652.108,2.8.178q.323.553.676,1.085c-1.163.032-2.48.067-2.634.063-.557.074-.448.76.167.762.352,0,1.822-.019,3.014-.036q.426.587.887,1.145c-1.249.062-2.687.13-2.854.128-.593.086-.468.817.188.812.4,0,2.1-.053,3.4-.092q.5.547,1.039,1.061c-1.318.136-2.827.287-3,.293-.626.119-.46.891.238.852.431-.023,2.338-.168,3.73-.277q.5.427,1.024.824c-1.441.155-3.2.34-3.4.347-.665.124-.49.943.25.905.513-.026,2.99-.216,4.464-.331q.423.274.858.53c-1.45.282-3.321.643-3.525.667-.652.181-.408.981.326.881.54-.074,3.273-.52,4.679-.752q.445.218.9.417c-1.45.545-3.281,1.229-3.487,1.288-.65.3-.26,1.094.489.865.531-.163,3.12-1.034,4.587-1.53.238.083.476.163.717.238-1.354.758-3.071,1.714-3.266,1.8-.6.393-.093,1.121.614.782.491-.236,2.836-1.442,4.225-2.159a22.634,22.634,0,0,0,10.212,0c1.389.717,3.734,1.923,4.226,2.159.706.339,1.211-.389.613-.782-.2-.089-1.913-1.046-3.266-1.8.241-.075.479-.155.716-.238,1.467.5,4.057,1.367,4.588,1.53.749.229,1.139-.566.489-.865-.206-.059-2.037-.743-3.488-1.288q.456-.2.9-.417c1.406.231,4.138.678,4.679.752.734.1.978-.7.326-.881-.2-.024-2.075-.385-3.526-.667q.436-.257.859-.53c1.474.115,3.951.3,4.464.331.74.038.915-.781.25-.905-.2-.007-1.958-.192-3.4-.347q.524-.4,1.023-.824c1.393.109,3.3.254,3.73.277.7.038.864-.733.238-.852-.177-.007-1.686-.158-3-.293q.537-.513,1.039-1.061c1.3.039,3.01.088,3.405.092.656.006.781-.725.188-.812-.167,0-1.6-.067-2.854-.128q.462-.558.887-1.145c1.193.017,2.662.036,3.014.036.615,0,.724-.688.167-.762-.155,0-1.471-.031-2.634-.063q.353-.531.676-1.085c1.147-.07,2.467-.152,2.8-.178.614-.048.671-.74.11-.771-.146.013-1.337.073-2.451.126q.255-.482.486-.976c1.079-.395,2.322-.85,2.632-.969.574-.221.43-.9-.117-.771-.125.051-1.1.394-2.076.738.179-.438.345-.882.5-1.334,1-.624,2.184-1.372,2.472-1.559.516-.336.233-.971-.273-.731-.112.075-.972.6-1.847,1.135.137-.492.258-.99.362-1.494.895-.633,1.865-1.319,2.117-1.5C76.816,59.779,76.5,59.161,76.007,59.428Z" transform="translate(-24.608 -30.235)"/><path class="a" d="M41.465,68.884a27.828,27.828,0,1,0-19.677-8.151A27.644,27.644,0,0,0,41.465,68.884ZM15,41.055a26.462,26.462,0,1,1,7.75,18.71A26.287,26.287,0,0,1,15,41.055Z" transform="translate(-13.637 -13.227)"/><path class="a" d="M108.377,94.989a.728.728,0,0,0-1.282.086c-.342.683.171.683-.6.085q-.574-.548-1.126-1.038a.634.634,0,1,0-.856-.74c-6.272-5.264-10.207-4.966-12.38-4.035,5.108-.173,9.195,2.7,11.587,4.761a.634.634,0,1,0,.857.764c.692.637,1.156,1.105,1.362,1.229.572.343.812.854,1.667.512A1.511,1.511,0,0,0,108.377,94.989Z" transform="translate(-74.375 -71.709)"/><path class="a" d="M107.744,94.989a.728.728,0,0,1,1.282.086c.342.683-.171.683.6.085q.575-.548,1.126-1.038a.634.634,0,1,1,.856-.74c6.272-5.264,10.207-4.966,12.38-4.035-5.108-.173-9.195,2.7-11.588,4.761a.634.634,0,1,1-.857.764c-.692.637-1.156,1.105-1.362,1.229-.572.343-.812.854-1.667.512A1.511,1.511,0,0,1,107.744,94.989Z" transform="translate(-86.416 -71.709)"/><path class="a" d="M119.087,40.121h-1.368a10.9,10.9,0,0,1-.086-1.668c.086-.3.342-.3.6-.256a3.76,3.76,0,0,1,.043-1.2c0-.043-.086-.384,0-.47.159-.159,0-.567-.086-.684.086.129-.043-.385.171-.342-.043-.726.043-.726.043-1.453.214,0,0-.257-.043-.428-.171-.513.256-1.026-.342-1.368-.385-.171-.555.342-.769.555a1.229,1.229,0,0,0-.043.556c-.343-.128-.343-.513-.513-.769s-.043-.556-.086-.855h-.171c-.043.128-.129.214-.171.342a4.643,4.643,0,0,0-.043.769c-.085-.128-.256-.171-.342-.257a3.83,3.83,0,0,1-.385-2.18c-.385-.043-.47.556-.683.769-.086.085-.171-.171-.171-.3a1.916,1.916,0,0,1,.342-1.581c.043-.086.513-.428.513-.513a1.631,1.631,0,0,0-1.111.256c-.23.23-.128-.855.214-1.154a3.889,3.889,0,0,1,1.325-.513c0-.085-.085-.128-.043-.213a4.673,4.673,0,0,0-1.539.085c.085-.428.6-.6.983-.641a9.805,9.805,0,0,1,1.582-.043.955.955,0,0,0-.342-.641c-.128-.171-.427-.043-.641-.086a4.03,4.03,0,0,1,1.24-.042c.256.042.427.3.684.385,0-.385.086-1.026-.428-1.154a1.407,1.407,0,0,1,1.2.812h.128c.043-.042-.043-.17,0-.213.085-.043.085-.171.128-.256.171-.129.043-.984.3-1.069.257.085.128.94.3,1.069.043.086.043.213.129.256.043.043-.043.171,0,.213h.128a1.408,1.408,0,0,1,1.2-.812c-.512.128-.427.769-.427,1.154.257-.085.427-.342.684-.385a4.031,4.031,0,0,1,1.24.042c-.214.043-.513-.085-.641.086a.956.956,0,0,0-.342.641,9.8,9.8,0,0,1,1.581.043c.385.043.9.213.983.641a4.668,4.668,0,0,0-1.539-.085c.043.085-.043.128-.043.213a3.889,3.889,0,0,1,1.325.513c.342.3.414,1.411.214,1.154a1.174,1.174,0,0,0-.984-.384,5.125,5.125,0,0,0,.385.641,1.915,1.915,0,0,1,.342,1.581c0,.128-.086.384-.171.3-.214-.214-.3-.812-.684-.769a3.832,3.832,0,0,1-.384,2.18c-.085.086-.257.128-.342.257a4.666,4.666,0,0,0-.043-.769c-.043-.128-.128-.214-.171-.342h-.171c-.043.3.085.6-.086.855s-.171.641-.512.769a1.235,1.235,0,0,0-.043-.556c-.214-.213-.385-.726-.77-.555-.427.256-.1.551-.384,1.411-.043.17-.214.384,0,.384,0,.727.128.683.086,1.41.214-.043.043.514.129.385-.214.3-.385.514-.043.855.086.086-.043.257-.043.3a3.754,3.754,0,0,1,.043,1.2c.257-.043.513-.043.6.256a10.893,10.893,0,0,1-.085,1.668h-1.54Z" transform="translate(-91.496 -21.799)"/><g transform="translate(16.718 26.471)"><path class="a" d="M167.559,138.054a.246.246,0,0,0-.125.077.124.124,0,0,0-.014.11.156.156,0,0,0,.069.1.692.692,0,0,0,.118-.052.374.374,0,0,0,.113-.106.234.234,0,0,0,.02-.071.351.351,0,0,0,.006-.068A.327.327,0,0,0,167.559,138.054Z" transform="translate(-149.341 -136.267)"/><path class="a" d="M151.346,151.217c0,.015,0,.071-.011.171a.774.774,0,0,0-.009.157.2.2,0,0,0,.118.094.357.357,0,0,0,.208-.045,1.875,1.875,0,0,0,.176-.1,1.245,1.245,0,0,0,.132-.095.679.679,0,0,0-.331-.129A.918.918,0,0,0,151.346,151.217Z" transform="translate(-136.893 -146.467)"/><path class="a" d="M105.1,139.293a.811.811,0,0,0-.117-.024.972.972,0,0,1-.171-.045,1.016,1.016,0,0,1-.158-.083.273.273,0,0,0-.13-.055.874.874,0,0,0,.1.213,2.139,2.139,0,0,0,.125.2,1.442,1.442,0,0,0,.189-.107Z" transform="translate(-100.679 -137.083)"/><path class="a" d="M104.536,130.229a6.966,6.966,0,0,1-12.09,0H87.533a11.484,11.484,0,0,0,21.875,0Zm-.911,2.312a1.85,1.85,0,0,1,.221-.034,1.417,1.417,0,0,1,.228-.029c.02.009.036.056.049.145s.007.142-.007.155a.726.726,0,0,1-.205.049.807.807,0,0,1-.206.018c-.015-.008-.033-.059-.056-.152S103.615,132.551,103.625,132.541ZM95.4,134.088a.142.142,0,0,1,.262.109.667.667,0,0,1,.041.177.518.518,0,0,1-.2.08.591.591,0,0,1-.214.034.439.439,0,0,1-.071-.155c-.029-.1-.039-.153-.03-.165A.833.833,0,0,1,95.4,134.088Zm-3.192-2.539a.418.418,0,0,1,.034-.122c.141.042.239.073.3.092s.116.033.129.036a.362.362,0,0,0-.044.134.218.218,0,0,0,0,.122.519.519,0,0,0,.15.049c.091.022.143.037.159.043l-.01.291c-.093-.01-.188-.024-.282-.042a.494.494,0,0,1-.152-.041.591.591,0,0,1,0-.154c0-.093.007-.141.009-.143l-.141-.048a1.236,1.236,0,0,0-.142-.041A.428.428,0,0,1,92.207,131.549Zm-.48,3.243a.63.63,0,0,1-.183-.024,1.563,1.563,0,0,1-.077-.212l-.053-.207c-.08-.012-.149-.027-.214-.041a.432.432,0,0,0-.114-.018.836.836,0,0,1-.077-.234.5.5,0,0,1-.025-.192c.207.038.344.057.4.072a.571.571,0,0,0,.074.012.6.6,0,0,0,.023.2.409.409,0,0,0,.067.174.516.516,0,0,0,.169.036,1.236,1.236,0,0,1,.189.023l.129.409A2.076,2.076,0,0,1,91.727,134.793ZM95.784,136c-.127-.048-.252-.1-.373-.146s-.244-.1-.367-.149a1.525,1.525,0,0,0-.485-.051,1.185,1.185,0,0,1-.476-.073l-.616-.349,0,0-.405-.266a.083.083,0,0,1-.037-.057.074.074,0,0,1,.029-.064l.165-.164c-.031.011-.1.033-.215.062l-.186.046-.286-.221,0,0-.165-.134a.262.262,0,0,1-.107-.273.424.424,0,0,1,.095-.149l-.407.037-.447-.473,0,0-.028-.033-.06-.063,0,0-.225-.269a.194.194,0,0,1-.01-.276c.076-.062.157-.124.242-.184a.524.524,0,0,0-.217-.043c-.207-.011-.322-.057-.35-.131-.043-.1-.089-.227-.148-.367-.077-.2-.131-.331-.16-.386a2.22,2.22,0,0,1,.417.028,1.7,1.7,0,0,1,.461.091,1.96,1.96,0,0,1,.277.149c.132.072.283.15.452.234a.184.184,0,0,0,.064-.04.194.194,0,0,1,.064-.04c.078.01.141.016.191.018.159.011.3.015.407.017a2.176,2.176,0,0,1-.306.186c-.185.106-.37.215-.552.327a2.717,2.717,0,0,0-.276.186.122.122,0,0,0,0,.111.775.775,0,0,0,.108.149l.052.057.567.577a.633.633,0,0,0,.165-.071c.071-.04.14-.08.206-.12.012,0,.1-.007.271-.012s.26-.017.281-.015a.174.174,0,0,1-.018.017l-.057.041c-.05.036-.109.074-.175.115s-.146.084-.238.132a.135.135,0,0,0-.085.133.206.206,0,0,0,.082.146l.064.05.377.278.791-.921c.113-.029.2-.053.257-.071.181-.055.3-.092.35-.1a3.519,3.519,0,0,1-.458.556c-.316.368-.5.584-.565.646s-.063.106-.008.137l.029.018h0l.742.407a1.2,1.2,0,0,0,.226.081.665.665,0,0,0,.189.025,1.877,1.877,0,0,0-.151-.2.918.918,0,0,0-.211-.22.657.657,0,0,0-.2-.075.808.808,0,0,0-.2-.012c.15-.062.271-.11.365-.138a.723.723,0,0,1,.507-.048.814.814,0,0,1,.335.278c.2.245.307.371.308.373a2.9,2.9,0,0,0,.346.269.968.968,0,0,0,.261.131Zm1.338-1.045a7.222,7.222,0,0,1-.157.819,1.233,1.233,0,0,1-.235.475,1.314,1.314,0,0,1-.24.2l.246-1.4a1.463,1.463,0,0,1,.222-.262c.113-.126.184-.2.218-.235Q97.145,134.8,97.121,134.957Zm2.759.65c.017.058.045.143.082.253a.993.993,0,0,1,.012.208c0,.1-.008.208-.019.325,0,.028-.019.051-.058.07a.289.289,0,0,1-.113.026l-.442.052v0l-.047,0-.083.01v0l-.407.03c-.043,0-.077-.027-.1-.081-.044-.111-.07-.167-.078-.181-.023.009-.057.056-.1.142s-.095.129-.144.131l-1.031-.05a.12.12,0,0,1-.085-.046.1.1,0,0,1-.018-.085l.056-.186a1.932,1.932,0,0,1,.137-.334.538.538,0,0,1,.084-.142.188.188,0,0,1,.092-.071c0,.009-.01.046-.025.111s-.025.111-.029.136a.22.22,0,0,0,.006.118.087.087,0,0,0,.087.046l.908.029a1.825,1.825,0,0,0-.088-.419c-.058-.225-.085-.342-.085-.346s.038-.086.11-.237.108-.229.12-.248c.032.107.072.251.12.429.018.064.042.154.074.269a3.282,3.282,0,0,0,.153.437c.035.066.072.094.113.09l.152-.014.434-.048c.007-.006.008-.024,0-.056a4.125,4.125,0,0,0-.157-.5c-.044-.13-.09-.269-.138-.418l-.068-.044a.333.333,0,0,1-.074-.059c.037-.114.069-.213.1-.292.048-.155.081-.238.1-.24a.61.61,0,0,1,.033.091.221.221,0,0,0,.075.121c.078.044.149.082.214.112a.882.882,0,0,0,.249.087l-.212.46Q99.787,135.317,99.88,135.607Zm1.039.691-.644-1.283a1.316,1.316,0,0,1,.034-.312c.022-.15.037-.245.047-.285q.121.219.2.361a7.441,7.441,0,0,1,.366.755,1.049,1.049,0,0,1,.085.495A.91.91,0,0,1,100.919,136.3Zm.63-1.953c-.01.033-.021.072-.035.112a.934.934,0,0,1-.229-.009.606.606,0,0,1-.186-.049c.022-.1.039-.178.053-.231.009-.037.017-.069.024-.093a.872.872,0,0,0,.2.045.466.466,0,0,0,.17.007c.011,0,.024-.042.036-.113a.515.515,0,0,1,.03-.127l.416.02a1.153,1.153,0,0,1,0,.213c-.008.077-.018.12-.029.126s-.055,0-.146,0c-.162-.008-.254-.015-.279-.02A.4.4,0,0,1,101.548,134.346Zm1.307,1.031a.745.745,0,0,1-.146.191.884.884,0,0,1-.209.165,1.411,1.411,0,0,1-.322.114c-.143.02-.237-.01-.285-.1a.666.666,0,0,1-.063-.338c0-.057.011-.19.025-.395a1.907,1.907,0,0,1,.02-.213c.005-.041.022-.131.045-.27.08.014.14.021.184.029.144.021.256.039.335.056a.581.581,0,0,1,.2.074.617.617,0,0,1,.139.121c.016.02.03.038.04.053l.027.044a3,3,0,0,1,.045.311A.515.515,0,0,1,102.855,135.377Zm1.266.216a2.193,2.193,0,0,1-.644.209c-.31.051-.478.053-.5.017-.012-.017-.009-.03.012-.041.09-.024.181-.05.269-.08a1.439,1.439,0,0,0,.256-.11.79.79,0,0,0,.175-.188,1.356,1.356,0,0,0,.179-.337c.018-.047.044-.119.077-.22.038-.143.029-.236-.025-.284a.889.889,0,0,0-.385-.079c-.069-.008-.168-.014-.3-.024-.04-.082-.07-.142-.091-.181a.909.909,0,0,1-.093-.227l.433.048a1.208,1.208,0,0,1,.564.245,1.174,1.174,0,0,1,.2.215.838.838,0,0,1,.128.5A.658.658,0,0,1,104.122,135.593Zm-.693-2.05a1.033,1.033,0,0,1-.146-.258c-.065-.128-.108-.212-.122-.248.161.08.293.145.394.2a8.759,8.759,0,0,1,.779.43,1.066,1.066,0,0,1,.364.353.781.781,0,0,1,.081.258Zm3.177-.288c-.226.224-.364.326-.414.312a.406.406,0,0,1-.092.352,2.2,2.2,0,0,1-.588.393c-.3.137-.471.194-.506.169s-.036-.042-.015-.06c.095-.051.193-.1.288-.146a.919.919,0,0,0,.237-.171.789.789,0,0,0,.156-.544c-.012-.26-.072-.409-.181-.455a.947.947,0,0,0-.41.03c-.071.01-.175.029-.31.057-.063-.064-.111-.112-.143-.141a.878.878,0,0,1-.159-.185c.276-.042.428-.068.448-.071a1.352,1.352,0,0,1,.634.072,1.059,1.059,0,0,1,.266.146,1.026,1.026,0,0,1,.317.379.765.765,0,0,1,.055.165,3.264,3.264,0,0,1,.189-.288,1.511,1.511,0,0,0,.215-.431,1.186,1.186,0,0,0-.033-.605c-.069-.19-.172-.3-.3-.32a.4.4,0,0,0-.083-.005.764.764,0,0,1,.191.19.3.3,0,0,1-.072.262.383.383,0,0,1-.325.179,1.064,1.064,0,0,1-.32-.06.963.963,0,0,1-.325-.281c-.136-.152-.177-.259-.127-.333a.652.652,0,0,1,.389-.15,1.679,1.679,0,0,1,.589-.024,1.374,1.374,0,0,1,.738.341.5.5,0,0,1,.135.655A4.446,4.446,0,0,1,106.6,133.255Z" transform="translate(-87.533 -130.229)"/></g><g transform="translate(10.265 26.471)"><path class="a" d="M72.485,137.668l.178-.06a.441.441,0,0,0-.1-.042.871.871,0,0,1-.142-.067.783.783,0,0,1-.116-.1.215.215,0,0,0-.1-.066.883.883,0,0,0,.021.206.694.694,0,0,0,.057.194A1.553,1.553,0,0,0,72.485,137.668Z" transform="translate(-69.219 -135.727)"/><path class="a" d="M120.038,179.6a.552.552,0,0,1-.133.05.2.2,0,0,0-.1.063.928.928,0,0,0,.194.087,1.486,1.486,0,0,0,.2.061,1.641,1.641,0,0,0,.018-.221c0-.044.006-.1.012-.192a.39.39,0,0,0-.074.063A.606.606,0,0,1,120.038,179.6Z" transform="translate(-106.051 -168.313)"/><path class="a" d="M82.76,157.876a.817.817,0,0,0-.085,0,.12.12,0,0,0-.062.132.288.288,0,0,0,.076.151c.03.038.054.053.071.043a.685.685,0,0,0,.12-.16c.029-.061.028-.1.006-.13A.2.2,0,0,0,82.76,157.876Z" transform="translate(-77.271 -151.621)"/><path class="a" d="M89.091,130.229a13.149,13.149,0,0,1-25.331,0H59.007a17.749,17.749,0,0,0,34.8,0Zm1.073,1.031c.343-.011.641-.009.893.008a1.339,1.339,0,0,1,.5.119.9.9,0,0,1,.221.159l-1.54.026a1.143,1.143,0,0,1-.268-.141c-.126-.076-.207-.125-.245-.152C89.9,131.269,90.05,131.263,90.164,131.26ZM72.74,140.168a.854.854,0,0,0,.09-.072.605.605,0,0,0,.093.146c.05.066.084.1.1.105s.048-.018.114-.07a.9.9,0,0,1,.115-.078l.233.264c-.056.054-.117.113-.179.164s-.1.076-.108.074a1.146,1.146,0,0,1-.124-.125c-.074-.081-.111-.125-.112-.127-.035.023-.069.046-.1.066a.512.512,0,0,0-.1.072.472.472,0,0,1-.144-.135.693.693,0,0,1-.085-.132C72.631,140.247,72.7,140.2,72.74,140.168Zm-9.779-8.893a.414.414,0,0,1,.065-.123c.117.059.2.1.256.124s.1.05.108.054a.519.519,0,0,0-.081.137.272.272,0,0,0-.038.13.509.509,0,0,0,.132.071,1.141,1.141,0,0,1,.132.073l-.1.3c-.083-.028-.17-.059-.25-.094a.43.43,0,0,1-.124-.068.789.789,0,0,1,.047-.156.9.9,0,0,1,.044-.143c-.04-.023-.078-.045-.115-.068a.619.619,0,0,0-.117-.06A.574.574,0,0,1,62.961,131.274Zm-.933,3.8a2.641,2.641,0,0,1-.273-.055.4.4,0,0,1-.141-.054.993.993,0,0,1,.02-.189c.017-.116.017-.172.02-.177s-.054-.02-.135-.052a1.041,1.041,0,0,0-.131-.051.881.881,0,0,1,.02-.2.5.5,0,0,1,.033-.164c.142.039.233.07.284.089l.119.044a.587.587,0,0,0-.057.174c-.015.084-.019.137,0,.153a.223.223,0,0,0,.085.04l.2.075Zm.022-1.1h0l-.014-.029-.016-.031h0l-.192-.423h0l-.186-.455h0l-.144-.364a.19.19,0,0,1,.093-.24c.093-.043.188-.084.285-.124a.481.481,0,0,0-.2-.066c-.18-.041-.272-.1-.275-.163a2.346,2.346,0,0,0-.034-.333,2.288,2.288,0,0,0-.035-.352,1.869,1.869,0,0,1,.381.059,1.343,1.343,0,0,1,.406.128,2.143,2.143,0,0,1,.213.17c.1.084.217.182.343.288a.191.191,0,0,0,.071-.028.215.215,0,0,1,.071-.027c.069.022.124.039.166.05l.376.093a2.35,2.35,0,0,1-.343.122q-.31.1-.616.2c-.2.069-.31.108-.321.117a.108.108,0,0,0-.042.1c.009.033.023.084.047.15l.01.027.2.474h0l.24.517.424.809a1.6,1.6,0,0,0,.186-.165,1.26,1.26,0,0,0,.2-.23c.049.009.133.019.254.028.08.006.17.013.275.016-.052.072-.1.129-.134.17a1.278,1.278,0,0,1-.31.278.788.788,0,0,1-.139.065c-.043.017-.114.038-.211.064a.35.35,0,0,1-.055.014c-.025,0-.093.021-.2.048a1.67,1.67,0,0,1-.236.045Zm.939,1.285.281-.091.435.658a.41.41,0,0,0,.162-.181.627.627,0,0,0,.078-.219c0-.027.009-.069.017-.126a.254.254,0,0,0-.007-.1l.543-.1a.507.507,0,0,1-.008.173.742.742,0,0,1-.087.26,1.029,1.029,0,0,1-.191.257.844.844,0,0,1-.213.165.261.261,0,0,1-.046.027l-.084.042a1.808,1.808,0,0,1-.32.13c-.129.036-.21.027-.244-.025l-.526-.812C62.793,135.317,62.863,135.3,62.99,135.257Zm7.92,5.64c-.023.06-.056.146-.1.259a1.453,1.453,0,0,1-.118.188c-.063.087-.132.179-.21.276a.082.082,0,0,1-.08.033.194.194,0,0,1-.092-.026l-.436-.174,0-.006-.426-.188v0l-.024-.012-.036-.016h0l-.4-.2,0,0-.3-.152.023-.147-.146.076-.473-.272a.19.19,0,0,0,0-.034c-.008-.041-.016-.069-.028-.077s-.029,0-.066.011a.094.094,0,0,1-.075.007l-.5-.317a.716.716,0,0,0,0-.073c0-.024-.005-.037-.012-.042a.228.228,0,0,1-.06.022.156.156,0,0,1-.112-.026l-.278-.195,0,0-.375-.271,0,0-.394-.316,0,0-.391-.331.091-.248c-.053.019-.1.031-.142.043a1.181,1.181,0,0,1-.152.033l-.533-.5.006,0-.33-.329h0l-.014-.015-.033-.033,0,0-.288-.317,0,0-.212-.243a1.523,1.523,0,0,1-.63.033.684.684,0,0,1-.487-.211.965.965,0,0,1-.173-.445c-.047-.2-.036-.319.021-.347a.031.031,0,0,1,.044.013,1.313,1.313,0,0,0,.076.177.741.741,0,0,0,.082.161.7.7,0,0,0,.1.114.462.462,0,0,0,.144.089,2.492,2.492,0,0,0,.32.145,1.565,1.565,0,0,0,.343.073,1.143,1.143,0,0,1-.138-.207c-.088-.2-.068-.336.074-.415a1.865,1.865,0,0,1,.536-.139c.319-.055.518-.04.6.051.053.066.032.167-.062.305a1.618,1.618,0,0,1-.369.388l.088.106h0l.39.425h0l.365.36,0,0,.45.421a.345.345,0,0,0,.023-.165.254.254,0,0,0-.088-.187c-.025-.019-.048-.038-.071-.052l-.051-.033a1.915,1.915,0,0,1,.189-.06c.119-.036.219-.066.291-.084a.208.208,0,0,1,.1.006.721.721,0,0,1,.31.153.4.4,0,0,1,.143.357.375.375,0,0,1-.1.256.452.452,0,0,1-.188.087,1.041,1.041,0,0,0-.169.059l.132.107h0l.4.319h0l.469.336,0,0,.293.2a.1.1,0,0,0,.1-.016.638.638,0,0,0,.08-.087q.146-.073.221-.105a.887.887,0,0,1,.279-.1,1.992,1.992,0,0,1-.292.265c-.047.039-.116.09-.207.155l.414.263a.058.058,0,0,0,.069,0,.274.274,0,0,0,.067-.068c.01-.014.022-.031.035-.052a3.6,3.6,0,0,1,.353-.172.56.56,0,0,1,.139-.04.79.79,0,0,0-.059.068q-.03.039-.12.164a2.455,2.455,0,0,1-.183.192l-.049.052.277.154c.008,0,.017,0,.027-.019a.579.579,0,0,0,.043-.084.614.614,0,0,1,.043-.085c.078-.045.161-.088.247-.127s.161-.069.179-.059l-.194.34a.215.215,0,0,0-.026.133c0,.049.017.079.04.091l.048.026.51.248.478.21,0,0,.331.132c.008,0,.02-.019.034-.049a4.784,4.784,0,0,0,.182-.512c.045-.135.092-.279.14-.428-.012-.032-.021-.056-.026-.071a.341.341,0,0,1-.025-.086q.146-.128.25-.214c.137-.12.214-.176.233-.168a.808.808,0,0,1-.029.1.222.222,0,0,0-.014.143,1.654,1.654,0,0,0,.1.2.745.745,0,0,0,.136.2l-.452.3C71.024,140.592,70.984,140.7,70.909,140.9Zm1.028-.39a8.431,8.431,0,0,1-.264.832,1.5,1.5,0,0,1-.273.464,1.208,1.208,0,0,1-.227.187l.4-1.419a1.515,1.515,0,0,1,.234-.251c.119-.115.2-.187.232-.216C72,140.268,71.965,140.4,71.937,140.507Zm3.728,3c-.057.065-.093.1-.1.1a1.54,1.54,0,0,1-.169-.109c-.082-.062-.133-.1-.155-.121l-.126.113a.3.3,0,0,0-.064.067.932.932,0,0,1-.184-.111.619.619,0,0,1-.135-.129c.117-.122.193-.2.228-.227.012-.011.026-.025.042-.043a1.391,1.391,0,0,0,.142.13.423.423,0,0,0,.144.092c.011,0,.046-.029.1-.089a.784.784,0,0,1,.108-.11l.323.249A2.251,2.251,0,0,1,75.665,143.508Zm1.388-.678-.053,0v0h-.465v0l-.522-.013v0l-.25-.007a.275.275,0,0,1-.233-.154.6.6,0,0,1-.051-.181l-.18.3-.569-.056v0l-.529-.064h0l-.015,0-.05-.006v0l-.42-.069v0l-.385-.074a.226.226,0,0,1-.182-.208q0-.157,0-.319a.427.427,0,0,0-.133.133c-.1.143-.188.2-.249.162-.088-.047-.193-.092-.312-.153-.172-.08-.282-.13-.332-.145a1.711,1.711,0,0,1,.2-.315,1.169,1.169,0,0,1,.268-.3,1.312,1.312,0,0,1,.232-.093c.115-.043.245-.095.388-.149a.23.23,0,0,0,0-.078.215.215,0,0,1,0-.079c.045-.048.081-.089.108-.12.09-.109.165-.2.225-.279a2.45,2.45,0,0,1-.019.371c-.018.219-.033.438-.049.655s-.018.334-.015.347a.136.136,0,0,0,.073.085.593.593,0,0,0,.153.048l.028.006.569.091h0l.446.053h0l.718.067a.555.555,0,0,0,.037-.164c.01-.078.018-.156.024-.231a2.039,2.039,0,0,1,.138-.185c.086-.11.134-.172.146-.182a.175.175,0,0,1,0,.026c0,.024,0,.048,0,.069,0,.061-.008.129-.017.2s-.021.162-.039.259a.184.184,0,0,0,.045.163.187.187,0,0,0,.143.065l.031,0,.513.012h0l.577,0h0l.765-.043a1.674,1.674,0,0,0-.065-.182.981.981,0,0,0-.233-.34l.173-.482a.87.87,0,0,1,.154.194,2.03,2.03,0,0,1,.185.346.53.53,0,0,1,.03.092c.008.032.015.075.022.126s.011.09.013.122,0,.065.007.1c-.008.089-.018.186-.03.3s-.023.178-.03.214l-.962.059h-.014Zm.694.7a.543.543,0,0,1-.177.131c-.016.008-.079-.033-.187-.113s-.161-.131-.162-.146.044-.079.136-.179a.968.968,0,0,1,.162-.16,1.525,1.525,0,0,1,.184.143.948.948,0,0,1,.179.162C77.885,143.387,77.84,143.441,77.747,143.527Zm5.766-2.235a.186.186,0,0,1-.081.049l-.425.2,0-.007-.429.178,0,0-.475.175,0,0-.486.158-.211-.188c-.005.045-.009.092-.014.134a.841.841,0,0,1-.027.138l-.7.2,0-.008-.452.11v0l-.5.095v0l-.219.045c-.038,0-.066,0-.085,0a.244.244,0,0,1-.126-.038,1.888,1.888,0,0,1-.138.51c-.115.255-.249.391-.4.415a1.514,1.514,0,0,1-.563-.138c-.261-.109-.393-.2-.4-.252,0-.021,0-.033.014-.033.069.037.138.076.206.106a.5.5,0,0,0,.233.041.672.672,0,0,0,.221-.077.892.892,0,0,0,.269-.223c.049-.064.1-.121.146-.179.1-.131.15-.234.136-.3a.614.614,0,0,0-.166-.226c-.049-.052-.1-.1-.151-.154l.084-.282a1.437,1.437,0,0,1,.055-.167c.086.1.174.206.265.313a.412.412,0,0,0,.387.17l.019,0,.5-.1h0l.561-.137,0,0,.592-.165a.467.467,0,0,0-.156-.1.315.315,0,0,0-.221-.016.388.388,0,0,0-.081.029l-.052.026a1.712,1.712,0,0,1,.012-.185c.009-.117.019-.209.028-.283,0-.015.015-.041.048-.083a.594.594,0,0,1,.273-.179.595.595,0,0,1,.638.273.384.384,0,0,1,.014.2.765.765,0,0,0-.009.166l.161-.055v0l.481-.176h0l.533-.22,0,.006.324-.146c0-.007,0-.025-.021-.056-.044-.076-.155-.226-.336-.46l-.291-.38c-.036-.012-.062-.021-.079-.028a.412.412,0,0,1-.092-.039c-.013-.123-.024-.227-.03-.313-.016-.167-.019-.264,0-.272a.673.673,0,0,1,.067.083.265.265,0,0,0,.117.1c.09.026.17.046.242.061a1.059,1.059,0,0,0,.26.031l-.024.508q.014.022.2.293c.037.053.094.132.168.235a1.5,1.5,0,0,1,.09.2q.057.151.112.326A.07.07,0,0,1,83.513,141.292Zm-.21-1.514a1.5,1.5,0,0,1-.072-.331c-.025-.157-.039-.257-.042-.3.12.134.217.245.291.333q.34.4.561.714a1.438,1.438,0,0,1,.232.485.979.979,0,0,1,.019.28Zm1.167-1.069a1.4,1.4,0,0,1-.189.011c-.122,0-.184,0-.187,0,0,.039,0,.078-.01.115a.382.382,0,0,0,.006.124.813.813,0,0,1-.219.007.96.96,0,0,1-.171-.023c0-.114,0-.193,0-.24a.8.8,0,0,0,0-.1.543.543,0,0,0,.186.02.431.431,0,0,0,.158-.006c.01-.006.015-.046.017-.12a.677.677,0,0,1,.008-.126h.387c.01.073.017.147.021.222S84.478,138.7,84.47,138.709Zm7.085-6.474a.319.319,0,0,0-.071.081.5.5,0,0,0-.05.117c.008.01,0,.029-.009.062a.315.315,0,0,1-.024.059l-.142.367h0l-.206.49h0l-.228.491h0l-.132.269c-.011.022.012.051.079.093s.083.073.078.109l-.856.542c0,.016.036.052.112.111a.14.14,0,0,1,.024.2l-.114.188h0l-.275.454-.007,0-.252.382,0,0-.236.318c-.006.023-.025.033-.051.037a.118.118,0,0,1-.076-.017l-.216-.109c.017.023.053.073.108.153l.09.134-.137.184,0,0-.34.409h0l-.337.386,0,0L88.08,138a.777.777,0,0,0-.142,0c-.2.009-.308.014-.333.017,0,.005.022.049.058.136a1.834,1.834,0,0,0,.079.19l-.512.491,0,0-.4.345,0,0-.385.308,0,0-.313.237a.272.272,0,0,1-.3,0c-.094-.062-.18-.115-.274-.181a.3.3,0,0,0,.024.172c.055.16.047.253-.022.277-.092.04-.206.08-.335.128-.178.079-.294.122-.34.149a1.637,1.637,0,0,1-.146-.333,1.173,1.173,0,0,1-.094-.384,1.088,1.088,0,0,1,.068-.224c.041-.1.08-.231.125-.367a.288.288,0,0,0-.067-.05.29.29,0,0,1-.067-.05c-.014-.062-.024-.112-.034-.15-.033-.127-.062-.236-.09-.327a2.1,2.1,0,0,1,.306.234q.269.22.537.437c.18.142.277.217.29.223a.2.2,0,0,0,.127,0,.6.6,0,0,0,.137-.088l.023-.017.4-.319h0l.392-.331h0l.534-.516-.989-.037c-.059-.065-.123-.141-.192-.231s-.145-.2-.228-.322l.536-.905.336.361a1.785,1.785,0,0,1-.123.208c-.18.291-.288.462-.314.517l1.4-.022.069-.071h0l.34-.384h0l.33-.392h0l.265-.343-1.208-.5c-.048-.083-.087-.147-.114-.191a2.951,2.951,0,0,1-.151-.263,3.773,3.773,0,0,1,.71.287c.467.206.741.328.821.37s.128.038.16,0l.018-.024.323-.477,0,0,.269-.436,0,0,.174-.283c.008-.03,0-.059-.044-.092a.942.942,0,0,1-.171-.175.583.583,0,0,1-.1-.313.462.462,0,0,1,.031-.29.154.154,0,0,1,.079-.078.163.163,0,0,1,.082.01l.06.018a.439.439,0,0,0,.088.013,1.191,1.191,0,0,0,.3-.039c.128-.026.2-.057.219-.091l.016-.031.219-.463h0l.2-.471h0l.151-.381c0-.008-.021-.016-.064-.024a5.479,5.479,0,0,0-.566-.033l-.469-.017-.077.041a.312.312,0,0,1-.1.04c-.082-.057-.16-.113-.234-.167-.126-.092-.184-.149-.176-.171a1,1,0,0,0,.137.014.217.217,0,0,0,.118-.024c.1-.072.192-.134.272-.191a.651.651,0,0,0,.154-.129l.147.147c.1.1.16.162.181.181.017,0,.134.012.351.028l.284.02q.079.005.248-.158c.112-.11.19-.166.263-.157a.706.706,0,0,1,.265.089.794.794,0,0,1,.16.124.754.754,0,0,1-.12.054A.343.343,0,0,0,91.555,132.235Z" transform="translate(-59.007 -130.229)"/><path class="a" d="M173.9,169.6a.333.333,0,0,0,.007.091.513.513,0,0,1,.005.136.811.811,0,0,1-.039.132.131.131,0,0,0-.014.1,1,1,0,0,0,.2-.086c.086-.042.147-.076.183-.1a1.831,1.831,0,0,0-.181-.149Z" transform="translate(-147.87 -160.69)"/><path class="a" d="M195.023,148.13a.25.25,0,0,0-.041.2l.122-.07c.051-.031.089-.054.111-.069.043-.027.063-.045.06-.056a.491.491,0,0,0-.139-.035C195.078,148.09,195.04,148.1,195.023,148.13Z" transform="translate(-164.213 -144.053)"/></g></svg>