<svg xmlns="http://www.w3.org/2000/svg" width="24.468" height="27.621" viewBox="0 0 24.468 27.621"><defs><style>.a{fill:#e52345;}.b,.c{stroke:none;}.c{fill:#fff;}</style></defs><path d="M15.332,30.121a2.841,2.841,0,0,0,2.833-2.833H12.5A2.841,2.841,0,0,0,15.332,30.121Zm8.5-8.5V14.54c0-4.348-2.309-7.989-6.374-8.952V4.625a2.125,2.125,0,0,0-4.249,0v.963c-4.051.963-6.374,4.589-6.374,8.952v7.082L4,24.455v1.416H26.663V24.455ZM21,23.039H9.666v-8.5c0-3.513,2.139-6.374,5.666-6.374S21,11.027,21,14.54Z" transform="translate(-2.195 -2.5)"/><g class="a" transform="translate(0 3.09)"><path class="b" d="M 5.498501300811768 10.49698352813721 C 2.742321252822876 10.49698352813721 0.5000013113021851 8.254673957824707 0.5000013113021851 5.498493671417236 C 0.5000013113021851 2.742313623428345 2.742321252822876 0.5000036954879761 5.498501300811768 0.5000036954879761 C 8.254681587219238 0.5000036954879761 10.49700164794922 2.742313623428345 10.49700164794922 5.498493671417236 C 10.49700164794922 8.254673957824707 8.254681587219238 10.49698352813721 5.498501300811768 10.49698352813721 Z"/><path class="c" d="M 5.498501300811768 1.000003814697266 C 3.018021106719971 1.000003814697266 1.000000953674316 3.018013477325439 1.000000953674316 5.498493671417236 C 1.000000953674316 7.978973388671875 3.018021106719971 9.996983528137207 5.498501300811768 9.996983528137207 C 7.978981018066406 9.996983528137207 9.997001647949219 7.978973388671875 9.997001647949219 5.498493671417236 C 9.997001647949219 3.018013477325439 7.978981018066406 1.000003814697266 5.498501300811768 1.000003814697266 M 5.498501300811768 3.814697265625e-06 C 8.53524112701416 3.814697265625e-06 10.99700164794922 2.461763381958008 10.99700164794922 5.498493671417236 C 10.99700164794922 8.535223960876465 8.53524112701416 10.99698352813721 5.498501300811768 10.99698352813721 C 2.461761474609375 10.99698352813721 9.5367431640625e-07 8.535223960876465 9.5367431640625e-07 5.498493671417236 C 9.5367431640625e-07 2.461763381958008 2.461761474609375 3.814697265625e-06 5.498501300811768 3.814697265625e-06 Z"/></g></svg>