<svg xmlns="http://www.w3.org/2000/svg" width="26.245" height="29.167" viewBox="0 0 26.245 29.167"><path d="M24.6,5.6a.677.677,0,0,1-.335-.087,16.686,16.686,0,0,0-8.123-2.056A16.684,16.684,0,0,0,8.018,5.515a.731.731,0,0,1-.7-1.283,18.555,18.555,0,0,1,17.617-.015A.738.738,0,0,1,24.6,5.6ZM3.731,13.258a.76.76,0,0,1-.423-.131.727.727,0,0,1-.175-1.021A15.078,15.078,0,0,1,8.6,7.337a16.834,16.834,0,0,1,15.035-.015,15.135,15.135,0,0,1,5.469,4.74.732.732,0,0,1-1.2.846,13.691,13.691,0,0,0-4.944-4.288,15.367,15.367,0,0,0-13.708.015A13.835,13.835,0,0,0,4.3,12.952a.636.636,0,0,1-.569.306Zm9.115,17.6a.684.684,0,0,1-.51-.219A14.743,14.743,0,0,1,9.4,26.792a12.946,12.946,0,0,1-1.531-6.329,8.076,8.076,0,0,1,8.254-7.86,8.076,8.076,0,0,1,8.254,7.86.729.729,0,0,1-1.458,0,6.615,6.615,0,0,0-6.8-6.4,6.615,6.615,0,0,0-6.8,6.4,11.425,11.425,0,0,0,1.356,5.615,13.8,13.8,0,0,0,2.7,3.529.749.749,0,0,1,0,1.035.8.8,0,0,1-.54.219Zm10.456-2.7a7.853,7.853,0,0,1-4.521-1.3,7.765,7.765,0,0,1-3.471-6.4.729.729,0,1,1,1.458,0A6.272,6.272,0,0,0,19.6,25.654a6.394,6.394,0,0,0,3.7,1.035,9.637,9.637,0,0,0,1.517-.146.732.732,0,1,1,.248,1.444,9.959,9.959,0,0,1-1.765.175Zm-2.931,3a.853.853,0,0,1-.19-.029,11.378,11.378,0,0,1-5.425-3.062,10.641,10.641,0,0,1-3.165-7.612,4.4,4.4,0,0,1,4.492-4.288,4.4,4.4,0,0,1,4.492,4.288,3.041,3.041,0,0,0,6.067,0c0-5.5-4.74-9.96-10.573-9.96a10.647,10.647,0,0,0-9.64,5.877,9.382,9.382,0,0,0-.86,4.083,14.492,14.492,0,0,0,.977,5.265.712.712,0,0,1-.423.933.723.723,0,0,1-.933-.423,16.247,16.247,0,0,1-1.065-5.775,10.956,10.956,0,0,1,.992-4.725A12.1,12.1,0,0,1,16.068,9.029C22.7,9.029,28.1,14.148,28.1,20.448a4.5,4.5,0,0,1-8.983,0,2.937,2.937,0,0,0-3.033-2.829,2.937,2.937,0,0,0-3.033,2.829,9.184,9.184,0,0,0,2.727,6.577,9.917,9.917,0,0,0,4.769,2.7.724.724,0,0,1,.51.89A.712.712,0,0,1,20.37,31.167Z" transform="translate(-2.997 -2)"/></svg>